<?xml version="1.0" encoding="utf-8"?>
<!-- Generator: Adobe Illustrator 16.0.0, SVG Export Plug-In . SVG Version: 6.00 Build 0)  -->
<!DOCTYPE svg PUBLIC "-//W3C//DTD SVG 1.1//EN" "http://www.w3.org/Graphics/SVG/1.1/DTD/svg11.dtd">
<svg version="1.1" id="Layer_1" xmlns="http://www.w3.org/2000/svg" xmlns:xlink="http://www.w3.org/1999/xlink" x="0px" y="0px"
	 width="39px" height="47px" viewBox="0 0 39 47" enable-background="new 0 0 39 47" xml:space="preserve">
<g>
	<g>
		<path fill="#F4AB2B" d="M30.903,13.867c-3.383,2.618-7.158,4.699-10.086,7.867c-0.603,0.651-0.526,1.463,0,2.121
			c2.969,3.717,7.119,6.71,11.196,9.109c1.671,0.983,3.18-1.61,1.514-2.59c-3.892-2.291-7.754-5.093-10.589-8.641
			c0,0.707,0,1.414,0,2.121c2.916-3.154,6.714-5.256,10.086-7.867C34.553,14.806,32.413,12.698,30.903,13.867L30.903,13.867z"/>
	</g>
</g>
<g>
	<g>
		<path fill="#F4AB2B" d="M25.187,5.799c-4.401,4.23-9.212,7.962-13.521,12.301c-1.568,1.579-4.277,3.966-2.843,6.45
			c3.986,6.906,13.126,9.514,17.341,16.349c1.013,1.644,3.608,0.138,2.59-1.514c-3.026-4.909-8.727-8.413-13.118-11.978
			c-1.395-1.132-2.808-2.346-3.888-3.792c-0.871-1.167,2.757-4.116,3.432-4.782c3.883-3.826,8.202-7.138,12.129-10.913
			C28.705,6.577,26.581,4.458,25.187,5.799L25.187,5.799z"/>
	</g>
</g>
</svg>
