<?xml version="1.0" encoding="utf-8"?>
<!-- Generator: Adobe Illustrator 16.0.0, SVG Export Plug-In . SVG Version: 6.00 Build 0)  -->
<!DOCTYPE svg PUBLIC "-//W3C//DTD SVG 1.1//EN" "http://www.w3.org/Graphics/SVG/1.1/DTD/svg11.dtd">
<svg version="1.1" id="Layer_1" xmlns="http://www.w3.org/2000/svg" xmlns:xlink="http://www.w3.org/1999/xlink" x="0px" y="0px"
	 width="170px" height="170px" viewBox="0 0 170 170" enable-background="new 0 0 170 170" xml:space="preserve">
<g>
	<path fill="#00708B" d="M9.324,43.847c0.052-1.83,0.104-3.638,0.147-5.415c0.161-6.691,0.227-13.304,0.612-19.895
		C10.71,7.806,13.386,8,24.123,8c3.229,0,4.251,0,3.067,0c15.688,0,31.294-1.166,46.97-0.663c15.705,0.504,31.6-2.853,47.226-0.363
		c10.638,1.695,11.031,12.421,10.824,21.104c-0.257,10.73-0.511,21.457-0.717,32.188c-0.12,6.306,2.207,14.71,0.019,20.735
		c-3.535,9.726-18.595,4.281-25.604,4.421C92.773,85.683,79.635,85.5,66.5,85.5c-8.312,0-16.978-0.3-25,0.502
		c-5.668,0.567-11.427,0.966-17.059-0.06c-4.138-0.755-10.494-1.124-12.738-4.903c-2.117-3.564-0.016-9.249-0.34-13.14
		C10.694,59.868,9.088,52.089,9.324,43.847z"/>
</g>
<g>
	<path fill="#FFFFFF" d="M18,31.25c0.75,6-2,10.75-0.5,17c1.25,4.25,1.5,8.5,1.25,13.25c-0.25,4-2.5,10.25-1,14
		c2.75,7.5,23.75,0.75,30,0.75C60,76.25,72,77.5,84,77.5c6.5,0,13-0.25,19.25,0c5.5,0.25,11.75,1.75,17-0.25
		c4.75-1.5,4.25-4.25,2.5-8c-2-4-2.75-5.5-1.75-9.75c1.5-5.5,1.5-10.75,1.75-16.5c0.193-4.053,0.33-8.097-0.066-12.14
		c-0.321-3.272,0.42-6.08,1.022-9.386c0.265-1.448,0.305-3.402-0.707-4.417c-2.136-2.145-7.612-1.149-10.261-0.94
		c-4.94,0.39-9.702,0.634-14.693,0.57C85.271,16.523,72.5,16.06,59.75,15.25c-7.788-0.495-15.472,1.663-23.25,1.25
		c-4.629-0.246-14.767-2.897-18.605,0.757C14.651,20.345,17.551,27.548,18,31.25z"/>
</g>
<g>
	<g>
		<path fill="#F4AB2B" d="M63.035,28.032c-1.742-0.001-9.358-1.561-9.501,1.605c-0.114,2.538,0.214,5.101,0.069,7.662
			c-0.207,3.632,0.388,7.236,0.095,10.828c-0.157,1.929,2.844,1.914,3,0c0.189-2.319-0.244-4.533-0.431-6.839
			c-0.172-2.128,0.387-4.426,0.442-6.573c0.008-0.872-0.002-1.745-0.033-2.616c-0.055-2.29,0.241-1.313-0.633-1.221
			c2.25-0.237,4.722,0.152,6.992,0.154C64.969,31.034,64.969,28.034,63.035,28.032L63.035,28.032z"/>
	</g>
</g>
<g>
	<g>
		<path fill="#62873D" d="M77.635,30.878c2.011,0.063,4.015-0.067,6.026-0.069c2.232-0.002,0.894,2.019,0.85,3.333
			c-0.146,4.399,0.869,8.396,0.054,12.818c-0.349,1.891,2.542,2.699,2.893,0.798c0.988-5.36-0.023-10.45,0.425-15.819
			c0.476-5.692-6.634-3.948-10.247-4.061C75.699,27.818,75.705,30.818,77.635,30.878L77.635,30.878z"/>
	</g>
</g>
<g>
	<g>
		<path fill="#711F13" d="M56.426,65.918c9.604,0.72,19.472-1.521,28.969-0.384c1.918,0.229,1.896-2.773,0-3
			c-9.498-1.137-19.366,1.104-28.969,0.384C54.496,62.773,54.509,65.774,56.426,65.918L56.426,65.918z"/>
	</g>
</g>
<g>
	<path fill="#00708B" d="M61.512,41.207c0.064-0.105,0.129-0.21,0.194-0.314c0.825-1.323,1.684-2.45,2.328-3.924
		c0.335-0.767,0.734-1.362,1.214-2.037c0.23-0.324,0.413-0.691,0.632-1.021c0.778-1.168,2.1-2.446,3.218-3.281
		c0.74-0.553,1.662-1.416,2.603-0.807c0.719,0.465,0.978,1.57,1.432,2.253c0.727,1.094,1.465,2.186,2.025,3.377
		c0.865,1.839,1.835,3.677,3.088,5.27c1.236,1.572,2.521,3.189,3.386,5.006c0.414,0.869,0.704,1.781,1.146,2.628
		c1.18,2.256,3.428,3.717,4.147,6.229c0.138,0.481,0.618,1.389,0.352,1.892c-0.287,0.542-0.751,0.289-1.274,0.255
		c-1.701-0.11-3.451,0.011-5.156,0.022c-3.504,0.022-7.008,0.054-10.513,0.054c-3.278,0-6.565,0.156-9.835-0.144
		c-1.379-0.126-2.771-0.559-4.139-0.513c-0.665,0.022-3.285,0.412-3.507-0.615c-0.097-0.448,0.493-0.584,0.793-0.795
		c0.633-0.447,1.064-1.026,1.539-1.638c1.628-2.101,2.176-4.603,3.47-6.9C59.593,44.54,60.512,42.837,61.512,41.207z"/>
</g>
<g>
	<path fill="#FFFFFF" d="M70.488,42.518c1.377,1.106,2.46,2.841,3.095,4.518c0.231,0.611,0.392,1.338,0.874,1.787
		c-1.247-0.176-2.724-0.538-3.978-0.369c-1.135,0.153-2.171,0.427-3.346,0.446c0.549-0.426,0.818-1.096,1.108-1.698
		c0.758-1.576,1.542-3.206,2.248-4.837"/>
</g>
<g>
	<path fill="#F4AB2B" d="M69.566,25.229c-1.69,0.615-3.842,1.921-2.843,4.149c0.615,1.306,3.15,2.766,4.61,2.536
		c1.383-0.307,3.228-1.921,3.074-3.458c-0.154-1.614-2.612-2.843-4.149-2.843"/>
</g>
<g>
	<path fill="#711F13" d="M55.12,52.431c2.536,0.077,4.61,2.689,3.15,4.995c-0.922,1.46-2.766,2.151-4.38,2.151
		c-4.995-0.077-2.305-8.068,1.844-6.916"/>
</g>
<g>
	<path fill="#62873D" d="M86.087,51.893c2.382,0.461,5.148,1.844,3.842,4.764c-0.922,2.075-2.535,2.997-4.687,2.92
		c-4.687-0.153-3.688-7.53,0.769-7.607"/>
</g>
<g>
	<path fill="#FFFFFF" d="M150.756,129.92c-0.406,1.783-0.808,3.547-1.195,5.282c-1.458,6.533-2.806,13.007-4.465,19.396
		c-2.7,10.406-5.287,9.696-15.819,7.61c-3.167-0.628-4.168-0.825-3.008-0.596c-15.391-3.046-30.926-4.936-46.205-8.473
		c-15.308-3.544-31.552-3.339-46.398-8.816c-10.105-3.728-8.408-14.327-6.519-22.804c2.337-10.477,4.669-20.949,6.955-31.437
		c1.342-6.162,0.692-14.858,4.009-20.343c5.356-8.854,19.071-0.588,25.975,0.636c12.935,2.294,25.787,5.025,38.672,7.576
		c8.154,1.615,16.598,3.593,24.62,4.363c5.672,0.545,11.397,1.272,16.724,3.373c3.913,1.542,10.076,3.14,11.544,7.282
		c1.384,3.908-1.781,9.075-2.22,12.958C152.523,113.938,152.589,121.879,150.756,129.92z"/>
	<g>
		<path fill="#00708B" d="M149.31,129.521c-2.13,9.357-3.619,19.111-6.729,28.205c-2.43,7.102-10.927,3.42-16.351,2.354
			c-1.889-0.371-2.695,2.518-0.798,2.894c0.146,0.028,0.292,0.058,0.438,0.086c0.266-0.964,0.531-1.929,0.797-2.893
			c-14.731-2.87-29.625-4.837-44.293-8.039c-14.268-3.115-29.01-3.737-43.118-7.566c-6.841-1.856-11.646-4.618-12.036-12.188
			c-0.305-5.927,1.749-12.135,3.022-17.85c1.647-7.395,3.284-14.791,4.903-22.191c1.322-6.042,1.247-12.288,2.769-18.281
			c3.327-13.101,19.367-3.375,27.714-1.88c15.232,2.727,30.386,5.935,45.547,9.026c13.068,2.665,26.604,2.703,38.859,8.454
			c7.694,3.61,2.517,10.289,1.893,16.278C151.104,113.813,150.949,121.74,149.31,129.521c-0.397,1.887,2.494,2.689,2.893,0.797
			c1.439-6.83,1.812-13.755,2.366-20.697c0.45-5.641,3.862-11.398,2.524-17.048c-0.847-3.577-5.198-5.425-8.186-6.677
			c-5.857-2.454-11.831-3.932-18.122-4.721c-15.811-1.984-31.324-5.42-46.945-8.553c-7.002-1.404-14.224-2.324-21.135-4.108
			c-4.7-1.213-9.103-3.443-13.961-4.075c-11.13-1.448-14.027,7.274-15.045,16.778c-1.577,14.715-5.951,28.952-8.731,43.468
			c-1.675,8.746-0.696,17.296,8.299,21.085c13.856,5.836,30.066,5.452,44.628,8.424c15.945,3.254,32.004,5.754,47.975,8.865
			c1.889,0.368,2.695-2.517,0.797-2.893c-0.146-0.029-0.291-0.058-0.437-0.087c-0.266,0.965-0.531,1.929-0.798,2.894
			c5.15,1.012,13.134,4.158,17.608-0.08c2.832-2.683,3.509-7.866,4.378-11.39c1.734-7.027,3.177-14.128,4.783-21.186
			C152.631,128.435,149.738,127.635,149.31,129.521z"/>
	</g>
</g>
<g>
	<path fill="#00708B" d="M136.999,92.5c-5.147-0.448-12.563-3.479-17.664-1.832c-2.493,0.805-4.922,10.286-4.61,12.607
		c0.238,1.769,13.024,2.967,14.492,3.15c4.891,0.611,9.85,1.074,14.783,1.074C146,97.5,148.5,93.5,136.999,92.5z"/>
</g>
<g>
	<g>
		<path fill="#00708B" d="M115.743,112.795c8.227,3.755,17.342,3.409,25.858,6.151c1.847,0.595,2.631-2.303,0.797-2.893
			c-8.241-2.653-17.191-2.222-25.142-5.849C115.511,109.408,113.984,111.993,115.743,112.795L115.743,112.795z"/>
	</g>
</g>
<g>
	<g>
		<path fill="#00708B" d="M41,125.5c16.367,1.506,32.25,5.657,48.283,9.067c16.333,3.475,33.406,2.99,49.318,8.379
			c1.837,0.622,2.619-2.275,0.797-2.893c-15.908-5.388-32.981-4.976-49.317-8.379c-16.322-3.4-32.431-7.643-49.081-9.175
			C39.073,122.322,39.09,125.324,41,125.5L41,125.5z"/>
	</g>
</g>
<g>
	<g>
		<path fill="#00708B" d="M41,134.5c16.982,2.209,33.332,6.861,49.959,10.76c15.163,3.555,30.84,4.396,46.143,7.187
			c1.891,0.345,2.698-2.546,0.797-2.893c-15.887-2.897-32.084-3.892-47.83-7.583C73.728,138.14,57.689,133.671,41,131.5
			C39.085,131.251,39.109,134.254,41,134.5L41,134.5z"/>
	</g>
</g>
<g>
	<g>
		<path fill="#00708B" d="M39.739,103.796c4.577,1.486,9.301,1.324,14.037,1.993c5.33,0.752,10.396,2.786,15.8,3.11
			c1.576,0.095,1.93-2.03,0.757-2.795c-0.071-0.046-0.142-0.093-0.213-0.139c-0.386,0.914-0.771,1.827-1.156,2.741
			c1.061,0.184,2.106,0.43,3.137,0.739c1.872,0.501,2.665-2.394,0.798-2.893c-1.031-0.31-2.077-0.556-3.137-0.739
			c-1.67-0.341-2.608,1.794-1.156,2.741c0.071,0.047,0.142,0.093,0.213,0.14c0.252-0.932,0.505-1.864,0.757-2.796
			c-5.097-0.307-9.984-2.186-15.003-3.003c-4.676-0.762-9.51-0.523-14.036-1.993C38.691,100.304,37.907,103.201,39.739,103.796
			L39.739,103.796z"/>
	</g>
</g>
<g>
	<g>
		<path fill="#00708B" d="M41.601,95.696c13.084,3.103,26.592,4.779,39.834,7.111c-0.299-0.734-0.598-1.469-0.896-2.203
			c-0.042,0.065-0.084,0.131-0.127,0.197c0.564-0.23,1.129-0.46,1.694-0.689c-0.069-0.02-0.138-0.039-0.207-0.059
			c-1.866-0.526-2.657,2.368-0.798,2.893c0.069,0.02,0.138,0.039,0.208,0.059c0.668,0.188,1.329-0.124,1.694-0.689
			c0.042-0.065,0.085-0.131,0.127-0.197c0.493-0.763,0.043-2.038-0.896-2.203c-13.243-2.332-26.751-4.009-39.834-7.111
			C40.518,92.357,39.719,95.25,41.601,95.696L41.601,95.696z"/>
	</g>
</g>
<g>
	<g>
		<path fill="#F4AB2B" d="M42.755,90.219c1.34,0.307,2.647,0.674,4.022,0.796c0.816,0.072,1.5-0.737,1.5-1.5
			c0-0.873-0.686-1.428-1.5-1.5c-1.094-0.098-2.157-0.444-3.225-0.688C41.67,86.896,40.87,89.787,42.755,90.219L42.755,90.219z"/>
	</g>
</g>
<g>
	<g>
		<path fill="#62873D" d="M50.745,91.834c1.223,0.288,2.491,0.365,3.667,0.829c0.762,0.3,1.646-0.322,1.845-1.048
			c0.234-0.852-0.288-1.546-1.047-1.845c-1.177-0.464-2.445-0.541-3.667-0.829C49.661,88.498,48.862,91.391,50.745,91.834
			L50.745,91.834z"/>
	</g>
</g>
<g>
	<g>
		<path fill="#711F13" d="M58.821,93.057c0.845,0.132,1.689,0.254,2.526,0.431c0.952,0.202,1.822,0.594,2.806,0.627
			c1.936,0.064,1.929-2.936,0-3c-0.662-0.022-1.363-0.365-2.008-0.52c-0.83-0.198-1.684-0.3-2.526-0.431
			c-0.807-0.126-1.61,0.192-1.845,1.048C57.576,91.931,58.012,92.931,58.821,93.057L58.821,93.057z"/>
	</g>
</g>
<g>
	<g>
		<path fill="#00708B" d="M46.851,77.446c3.341,0.534,7.689,2.752,11.048,1.5c-0.615-0.349-1.23-0.698-1.845-1.047
			c0.471,1.182,0.737,2.038,2.08,2.408c0.497,0.136,1.092,0.018,1.583-0.1c1.908-0.458,3.551,0.712,5.254,1.332
			c3.104,1.13,9.308,3.176,12.286,1.007c-0.605-0.079-1.211-0.157-1.817-0.235c2.821,2.206,6.23,1.031,9.109,2.892
			c2.088,1.35,3.425,0.802,5.262-0.642c-0.785-0.101-1.57-0.202-2.355-0.304c1.893,2.823,4.72,1.511,7.538,2.788
			c1.747,0.792,3.273-1.792,1.514-2.59c-1.268-0.574-5.881-0.846-6.462-1.711c-0.583-0.871-1.57-0.921-2.355-0.304
			c-0.734,0.577-9.533-1.784-10.129-2.25c-0.497-0.388-1.233-0.661-1.817-0.235c-2.201,1.603-7.457-0.857-9.975-1.309
			c-0.021-0.003-7.084-2.203-6.822-1.544c-0.28-0.705-1.018-1.356-1.845-1.047c-2.66,0.991-6.74-1.066-9.452-1.5
			C45.757,74.251,44.945,77.142,46.851,77.446L46.851,77.446z"/>
	</g>
</g>
<g>
	<g>
		<path fill="#00708B" d="M46.601,78.696c1.96,0.385,3.86,0.683,5.84,0.913c3.03,0.352,5.325,1.052,8.215,2.105
			c1.41,0.514,2.852,0.579,4.313,0.356c0.409-0.062,1.31-1.146,1.637-0.999c0.925,0.418,1.737,1.224,2.637,1.723
			c0.602,0.334,1.32,0.24,1.817-0.235c0.974-0.929,0.743,0.472,1.791,0.636c1.795,0.282,2.591,0.314,4.156-0.651
			c-0.605-0.079-1.211-0.157-1.817-0.235c1.63,1.856,3.165,2.338,5.598,2.421C85.261,84.884,89.553,86.038,94,86.5
			c1.924,0.2,1.904-2.802,0-3c-2.822-0.293-5.569-0.879-8.351-1.411c-2.544-0.486-6.457,0.242-8.338-1.9
			c-0.434-0.494-1.273-0.57-1.817-0.235c-1.544,0.952-2.37-1.205-3.743-1.205c-1.314,0-1.951,0.87-2.811,1.689
			c0.606-0.078,1.212-0.156,1.817-0.235c-1.194-0.662-2.271-1.783-3.608-2.151c-2.109-0.58-3.106,1.443-5.695,0.769
			c-2.183-0.569-4.088-1.818-6.356-2.128c-2.576-0.352-5.104-0.381-7.699-0.891C45.509,75.433,44.704,78.324,46.601,78.696
			L46.601,78.696z"/>
	</g>
</g>
<g>
	<g>
		<path fill="#00708B" d="M46.795,77.757c0.464-0.895,0.88-1.812,1.25-2.75c0.736-1.731-1.708-3.279-2.591-1.514
			c-0.25,0.5-0.5,1-0.75,1.5c0.684-0.18,1.368-0.359,2.052-0.539c0.013,0.013,0.026,0.025,0.039,0.039
			c-0.458-1.009-2.115-0.952-2.591,0C43.706,75.49,43.579,75.898,43.5,77c0.982-0.133,1.964-0.266,2.946-0.399
			c-0.065-0.284-0.131-0.567-0.196-0.851c-0.982,0.133-1.964,0.266-2.946,0.399c0.219,1.024,0.318,1.202,0.901,2.108
			c0.657,1.022,1.912,0.9,2.591,0c0.502,0.131,1.005,0.261,1.508,0.392c0.299,1.282,2.108,1.451,2.742,0.358
			c0.524-0.943,1.196-1.759,2.015-2.446c-0.785-0.101-1.57-0.202-2.356-0.304c0.265,0.915,0.53,1.829,0.795,2.743
			c0.036,1.199,1.231,1.786,2.257,1.295c2.881-1.377,2.879,1.301,5.453,1.588c0.817,0.091,1.763,0.219,2.519-0.251
			c0.925-0.575,2.215-2.618,2.825-0.984c0.418,1.122,1.591,1.397,2.507,0.662c1.258-1.011,1.733,0.337,2.879,1.5
			c0.351,0.356,0.971,0.564,1.459,0.386c2.737-1.001,0.871,0.427,2.952,1c1.396,0.384,3.333-0.216,4.531-0.901
			c-0.029,0.016,4.302,0.819,4.52,0.833c3.898,0.26,8.063,0.909,11.592,2.666c1.726,0.859,3.246-1.728,1.514-2.59
			c-4.658-2.319-10.029-2.967-15.176-3.191c-1.127-0.049-1.808-1.54-3.087-0.809c-2.052,1.172-2.375,1.239-3.683-0.265
			c-0.363-0.418-0.953-0.484-1.459-0.386c-0.492,0.074-0.971,0.199-1.438,0.375c-1.031,0.203-0.989,0.366,0.127,0.487
			c-0.583-0.592-1.045-1.606-1.892-1.862c-2.391-0.723-2.764-1.128-4.959,0.636c0.835,0.221,1.671,0.441,2.507,0.662
			c-0.81-2.169-2.6-5.108-5.101-2.693c-2.151,2.078-3.311,0.607-5.387-0.265c-1.681-0.706-3.183,0.078-4.716,0.811
			c0.752,0.432,1.504,0.864,2.257,1.295c-0.049-1.645-0.473-2.793-1.205-4.257c-0.444-0.889-1.694-0.936-2.356-0.304
			c-1.029,0.982-1.776,1.831-2.485,3.054c0.914,0.119,1.828,0.239,2.742,0.358c-1.074-4.596-4.392-4.555-6.992-1.108
			c0.864,0,1.727,0,2.591,0c-0.2-0.464-0.399-0.928-0.599-1.392c-0.354-1.651-3.045-1.29-2.946,0.399
			c0.037,0.623,0.118,1.04,0.304,1.649c0.508,1.67,2.827,1.269,2.946-0.399c0.099-0.331,0.197-0.662,0.295-0.993
			c-0.864,0-1.727,0-2.591,0c0.242,0.532,0.506,0.796,1.039,1.039c0.704,0.32,1.66,0.246,2.052-0.539c0.25-0.5,0.5-1,0.75-1.5
			c-0.864-0.504-1.727-1.009-2.591-1.514c-0.369,0.938-0.786,1.854-1.25,2.75C43.36,77.974,45.947,79.496,46.795,77.757
			L46.795,77.757z"/>
	</g>
</g>
</svg>
