<?xml version="1.0" encoding="utf-8"?>
<!-- Generator: Adobe Illustrator 16.0.0, SVG Export Plug-In . SVG Version: 6.00 Build 0)  -->
<!DOCTYPE svg PUBLIC "-//W3C//DTD SVG 1.1//EN" "http://www.w3.org/Graphics/SVG/1.1/DTD/svg11.dtd">
<svg version="1.1" id="Layer_1" xmlns="http://www.w3.org/2000/svg" xmlns:xlink="http://www.w3.org/1999/xlink" x="0px" y="0px"
	 width="193px" height="86px" viewBox="0 0 193 86" enable-background="new 0 0 193 86" xml:space="preserve">
<g>
	<g>
		<path fill="#D87822" d="M39.262,20.822c0.568,0.048,1.184,0.064,1.887,0.13c1.87,0.174,3.77-0.012,5.084-1.513
			c0.694-0.792,1.163-1.952,1.477-2.953c0.604-1.934-0.046-3.954-0.111-5.903c-0.099-2.964-0.42-5.777-2.818-7.724
			c-2.208-1.793-5.107-2.161-7.862-1.934c-2.892,0.906-4.958,1.583-7.029,3.998c-3.317,3.867-1.734,8.71,2.501,10.919
			c1.538,0.803,2.324,2.285,3.507,3.469C37.057,20.474,38.051,20.719,39.262,20.822z"/>
	</g>
	<g>
		<path fill="#D87822" d="M25.678,25.222c-3.44,0.467-6.743,1.669-10.208,2.001c-1.527,0.146-3.24,0.297-4.579-0.493
			c-1.345-0.796-2.321-2.484-3.411-3.583c-0.576-0.581-0.714-0.733-1.596-0.799c-1.238-0.092-3.139,1.042-4.034,1.876
			c-2.558,2.383-0.68,5.718,1.074,7.939c2.379,3.013,4.442,4.943,8.224,5.704c1.513,0.305,2.865,0.545,4.469,0.443
			c2.943-0.187,5.585-0.974,8.44-1.376c0.386,0.986,0.185,2.103,0.193,3.159c0.016,2.041,0.672,4.032,0.813,6.076
			c0.162,2.342,0.187,4.688,0.143,7.035c-0.091,4.826-0.477,9.644-0.477,14.472c0,2.949,0.605,5.808,0.323,8.779
			c-0.23,2.423-1.697,5.193,0.667,7.14c1.77,1.457,3.985,1.638,6.193,1.636c1.294-0.002,2.303,0.229,3.235-0.766
			c2.521-2.693,1.57-6.454,1.446-9.729c-0.188-4.93-0.6-9.855-0.346-14.791c0.066-1.291,0.066-3.577,1.987-2.984
			c1.348,0.415,1.399,2.175,1.365,3.312c-0.113,3.767-0.108,7.625,0.125,11.387c0.217,3.504-0.334,7.008-0.15,10.539
			c0.085,1.64,0.195,2.303,1.752,2.717c1.438,0.382,3.271,0.415,4.8,0.475c1.659,0.066,3.152,0.468,4.433-0.71
			c1.222-1.124,1.324-2.575,1.363-4.109c0.135-5.382-0.323-10.723-0.385-16.1c-0.035-2.99-0.016-5.981-0.057-8.971
			c-0.042-3.074-0.239-6.104-0.538-9.144c-0.284-2.884,0.272-5.937,0.443-8.853c2.714,0.639,6.225,3.191,9.099,4.31
			c1.655,0.725,3.432,1.8,5.192,2.219c2.133,0.507,3.655-0.886,3.445-2.789c-0.197-1.781,0.011-4.979-1.098-6.51
			c-0.573-0.79-2.135-1.117-2.971-1.579c-1.483-0.818-2.865-1.808-4.409-2.515c-4.265-1.954-8.624-3.703-12.873-5.671
			c-3.865-1.79-8.966-1.033-13.146-1.033c-3.033,0-5.747,0.319-8.62,1.276"/>
	</g>
	<g>
		<path fill="#F4AB2B" d="M91.25,4.2c-0.644,0.707-1.167,1.561-1.531,2.582c-1.041,2.928,0.229,3.679,1.459,6.099
			c1.272,2.504,1.17,5.239,3.497,7.173c2.215,1.842,5.235,2.148,7.617,0.417c1.642-1.193,2.511-4.148,3.43-5.932
			c1.172-2.271,2.257-4.703,1.81-7.32c-0.824-4.815-3.68-5.462-8.124-6.113c0.023,0.003,0.088-0.038,0.113-0.033
			C96.413,1.202,93.251,1.999,91.25,4.2z"/>
	</g>
	<g>
		<path fill="#F4AB2B" d="M78.683,28.79c-3.086,1.411-6.156,2.87-9.099,4.563c-1.668,0.961-2.04,2.195-2.134,4.003
			c-0.077,1.502-0.68,4.273,0.254,5.566c1.846,2.555,6.059-0.094,7.961-1.087c1.423-0.742,6.773-4.968,8.207-4.472
			c1.749,0.605,0.935,5.882,0.875,7.208c-0.224,4.926,0.751,9.881,0.161,14.801c-0.609,5.073-2.312,10.156-3.163,15.242
			c-0.319,1.909-0.981,4.179-0.247,6.068c0.729,1.876,2.95,2.188,4.685,2.461c0.82,0.129,1.944,0.509,2.75,0.492
			c1.516-0.032,1.399-0.779,2.093-2.2c1.197-2.451,1.372-3.86,1.535-6.573c0.167-2.792,1.164-5.418,2.03-8.047
			c0.811-2.461,0.79-5.049,1.284-7.609c0.325-1.691,1.867-5.832,3.987-2.752c0.809,1.175,1.117,3.424,1.551,4.813
			c0.672,2.148,1.014,4.387,1.324,6.611c0.609,4.373,1.69,9.161,3.574,13.176c1.191,2.538,2.351,2.102,4.925,2.108
			c1.475,0.004,4.294,0.218,5.12-1.433c0.609-1.219-0.527-4.259-0.931-5.463c-1.568-4.676-3.108-9.32-3.567-14.258
			c-0.449-4.839-0.452-9.599-0.452-14.454c0-2.394-0.342-4.76-0.578-7.136c-0.201-2.018-0.503-3.31,1.862-2.761
			c3.759,0.871,14.448,4.522,16.472-1.109c0.527-1.467-0.033-5.446-1.36-6.424c-0.891-0.655-1.419,0.312-2.51,0.642
			c-6.511,1.969-9.958-4.307-15.642-5.874c-4.629-1.277-9.896-0.479-14.685-0.639c-2.82-0.095-5.678,0.057-8.408,0.819
			C83.679,25.879,81.342,27.573,78.683,28.79z"/>
	</g>
	<g>
		<path fill="#722014" d="M161.424,1.268c-0.492-0.184-0.972-0.336-1.416-0.46c-3.751-1.052-7.709,0.648-10.625,2.984
			c-1.599,1.28-3.118,3.11-3.205,5.257c-0.114,2.829,1.284,4.152,2.354,6.649c0.437,1.02,0.6,2.019,1.191,2.975
			c3.546,5.737,10.356,2.789,13.296-1.895c0.142-0.227-0.184-1.678-0.094-2.109c0.176-0.851,0.667-1.563,1.177-2.245
			c0.882-1.176,2.792-2.254,3.122-3.742C167.896,5.64,163.885,2.186,161.424,1.268z"/>
	</g>
	<g>
		<path fill="#722014" d="M165.357,23.937c4.217,0.161,8.035,2.929,11.746,4.667c0.973,0.37,1.282,0.515,0.927,0.433
			c3.295,1.199,6.604,2.295,9.758,3.879c1.335,0.67,2.938,1.369,4.102,2.312c3.406,2.759,0.503,8.472-3.264,8.864
			c-2.253,0.235-4.339-1.891-6.5-2.432c-2.803-0.702-5.044-2.074-7.578-3.366c-2.218-1.132-2.395-0.749-2.3,1.403
			c0.15,3.372-0.615,6.691-0.66,10.045c-0.126,9.349,0.953,18.504,0.953,27.84c0,1.484,0.588,4.386,0,5.733
			c-1.02,2.338-3.313,2.393-5.357,1.85c-1.748-0.465-3.768,0.872-5.254-0.367c-1.195-0.996-1.2-3.11-1.2-4.516
			c0-5.034-0.181-10.018-0.271-15.026c-0.037-2.076-0.364-4.267-0.117-6.33c0.168-1.405,0.882-3.011-1.425-2.733
			c-2.79,0.337-1.54,4.347-1.539,6.215c0,2.651,0.014,5.322-0.042,7.972c-0.047,2.216,0.189,4.537-0.183,6.754
			c-0.372,2.21,0.724,5.979-1.466,7.455c0.297-0.201-0.022-0.18-0.957,0.061c-2.344,0.211-8.181,1.252-8.686-2.289
			c-1.007-7.065-0.319-14.559-0.319-21.674c0-4.27-0.515-8.517-0.479-12.749c0.024-2.896,0.586-5.879,0.394-8.768
			c-0.16-2.406-1.672-1.804-3.304-1.127c-2.492,1.035-3.928,1.166-6.455,0.429c-2.94-0.857-7.617-0.787-9.745-3.324
			c-1.817-2.167-0.519-8.884,3.138-8.327c1.297,0.197,2.278,0.827,3.508,1.275c2.035,0.744,5.103,1.647,7.213,0.945
			c2-0.665,4.287-2.266,6.088-3.387c2.628-1.637,6.014-1.407,8.996-1.375C158.479,24.315,161.88,23.803,165.357,23.937z"/>
	</g>
</g>
</svg>
