<?xml version="1.0" encoding="utf-8"?>
<!-- Generator: Adobe Illustrator 16.0.0, SVG Export Plug-In . SVG Version: 6.00 Build 0)  -->
<!DOCTYPE svg PUBLIC "-//W3C//DTD SVG 1.1//EN" "http://www.w3.org/Graphics/SVG/1.1/DTD/svg11.dtd">
<svg version="1.1" id="Layer_1" xmlns="http://www.w3.org/2000/svg" xmlns:xlink="http://www.w3.org/1999/xlink" x="0px" y="0px"
	 width="170px" height="170px" viewBox="0 0 170 170" enable-background="new 0 0 170 170" xml:space="preserve">
<g>
	<g>
		<path fill="#F4AB2B" d="M-236.222,19.197c1.522,7.202,0.273,15.727,0.136,23.061c-0.154,8.26-0.33,16.519-0.431,24.779
			c-0.194,15.854-1.48,31.689-1.486,47.535c-0.003,7.38-0.442,15.002,0.44,22.34c0.548,4.554,2.587,9.447,6.442,12.159
			c5.6,3.939,10.77,4.353,17.484,4.981c7.985,0.747,15.983,1.222,23.998,1.51c16.212,0.583,32.591,0.729,48.805,0.146
			c7.302-0.263,14.569-1.39,21.792-2.424c3.598-0.515,7.128-1.136,10.681-1.902c3.651-0.788,7.424-0.486,11.011-1.469
			c10.435-2.857,7.479-21.343,7.376-28.749c-0.104-7.593,0.154-15.129,0.27-22.714c0.122-8.024-0.618-15.952-0.133-23.986
			c0.531-8.795-1.091-17.721-1.01-26.55c0.089-9.599,0.023-19.268,0.327-28.855c0.162-5.099,0.149-10.659-6.09-12.347
			c-3.442-0.932-6.909-0.589-10.444-0.625c-5.044-0.052-10.088-0.12-15.133-0.108c-18.93,0.044-37.816,0.074-56.745-0.33
			c-9.658-0.206-19.316-0.344-28.976-0.239c-9.238,0.1-18.277,1.206-27.443,1.717c-1.923,0.107-1.934,3.108,0,3
			c7.263-0.405,14.428-1.409,21.737-1.61c8.282-0.228,16.57-0.167,24.854-0.05c16.354,0.231,32.697,0.79,49.056,0.672
			c7.743-0.056,15.485-0.192,23.229-0.152c7.339,0.038,24.163-2.977,23.122,8.413c-0.684,7.48-0.165,15.198-0.343,22.721
			c-0.198,8.362-0.136,16.592,0.551,24.93c0.615,7.465-0.154,14.885,0.09,22.359c0.26,7.969-0.053,15.844-0.028,23.804
			c0.023,7.472,0.207,14.942,0.229,22.414c0.011,3.245-0.185,6.494-1.464,9.52c-2.102,4.974-7.152,4.047-11.43,4.733
			c-7.816,1.253-15.523,2.785-23.394,3.786c-8.447,1.074-16.859,1.155-25.359,1.208c-16.032,0.099-32.067,0.054-48.075-0.938
			c-6.15-0.381-12.299-0.934-18.419-1.646c-8.021-0.934-12.815-7.11-13.731-14.729c-0.747-6.21-0.277-12.773-0.279-19.021
			c-0.001-6.998,0.265-13.96,0.667-20.945c0.768-13.336,0.75-26.687,0.986-40.039c0.112-6.329,0.262-12.658,0.364-18.987
			c0.095-5.895,0.882-12.375-0.343-18.169C-233.729,16.507-236.621,17.31-236.222,19.197L-236.222,19.197z"/>
	</g>
</g>
<g>
	<path fill="#F4AB2B" d="M-127.764,72.716c1.729-3.455,1.536-8.254,1.729-11.9c0-1.151,0.383-4.031-0.192-4.99
		c-1.151-1.152-75.566-0.768-77.102-0.768c-2.111,0-10.173-1.344-11.9,0c-2.111,1.343-2.495,10.748-2.687,13.052
		c0,1.151-0.385,3.263,0.191,4.223c1.152,2.303,3.455,1.535,5.95,1.535c4.606,0,80.173,0.576,84.396-0.384"/>
</g>
<g>
	<path fill="#722014" d="M-126.035,101.117c0.768-3.646,0.575-7.678,0.191-11.133c-0.191-2.303,0.191-5.182-1.535-6.143
		c-1.92-0.959-77.486,0.385-79.598,0.385c-1.919,0-6.525-0.768-8.061,0c-2.111,0.959-1.535,3.646-1.535,5.758
		c0,2.303-1.729,10.748-0.385,12.477c1.728,1.727,89.386,1.727,90.537-0.385"/>
</g>
<g>
	<path fill="#00718C" d="M-125.844,45.589c0.191-4.031-0.576-8.254-0.576-12.284c0-1.728,0.768-4.799-0.383-5.759
		c-1.344-1.151-77.486-0.575-79.406-0.575c-3.838-0.192-10.939-1.536-11.899,2.879c-0.575,2.688-0.192,6.334-0.575,9.213
		c-0.193,1.151-0.961,5.374-0.193,6.334c1.344,2.304,9.789,1.151,12.477,1.151c3.071,0,76.718,0.769,79.789-0.191"/>
</g>
<g>
	<g>
		<path fill="#F4AB2B" d="M-117.3,93.301c1.297,1.738,2.35,3.638,3.647,5.375c0.697,0.935,1.901,0.982,2.59,0
			c2.137-3.045,4.171-6.126,6.867-8.718c1.397-1.343-0.727-3.461-2.121-2.121c-2.877,2.766-5.057,6.075-7.336,9.325
			c0.863,0,1.727,0,2.59,0c-1.297-1.738-2.35-3.638-3.647-5.375C-115.853,90.256-118.459,91.749-117.3,93.301L-117.3,93.301z"/>
	</g>
</g>
<g>
	<g>
		<path fill="#F4AB2B" d="M-117.217,66.803c1.193,1.364,2.453,2.667,3.646,4.031c0.519,0.593,1.6,0.579,2.121,0
			c2.53-2.808,4.328-6.273,7.374-8.594c1.518-1.156,0.025-3.764-1.514-2.591c-3.308,2.521-5.24,6.021-7.981,9.064
			c0.707,0,1.414,0,2.121,0c-1.193-1.364-2.452-2.667-3.646-4.031C-116.372,63.224-118.485,65.354-117.217,66.803L-117.217,66.803z"
			/>
	</g>
</g>
<g>
	<g>
		<path fill="#F4AB2B" d="M-118.411,38.396c0.752,1.289,1.55,2.55,2.303,3.839c0.51,0.874,1.639,0.939,2.355,0.304
			c2.816-2.496,5.271-5.367,8.254-7.677c1.528-1.183-0.612-3.29-2.121-2.121c-2.983,2.31-5.438,5.182-8.254,7.677
			c0.785,0.101,1.57,0.202,2.355,0.304c-0.752-1.289-1.55-2.55-2.303-3.839C-116.795,35.212-119.389,36.721-118.411,38.396
			L-118.411,38.396z"/>
	</g>
</g>
<g>
	<g>
		<g>
			<path fill="#FFFFFF" d="M-209.405,62.337c0.197,1.983,0.379,3.967,0.575,5.95c0.189,1.907,3.191,1.925,3,0
				c-0.196-1.983-0.378-3.967-0.575-5.95C-206.595,60.431-209.597,60.413-209.405,62.337L-209.405,62.337z"/>
		</g>
	</g>
	<g>
		<g>
			<path fill="#FFFFFF" d="M-207.905,61.726c0.875-0.099,1.744-0.181,2.625-0.164c1.64,0.032,0.617,1.113-0.514,1.194
				c-1.911,0.137-1.944,3.091,0,3c0.983-0.046,4.194,0.584,2.818,2.232c-0.826,0.99-3.259,0.586-4.338,0.388
				c-1.891-0.347-2.699,2.544-0.798,2.893c2.945,0.541,7.007,0.603,8.179-2.775c1.27-3.658-2.755-5.883-5.861-5.738c0,1,0,2,0,3
				c2.806-0.201,5.345-2.716,3.997-5.612c-0.962-2.066-4.339-1.618-6.108-1.418C-209.805,58.94-209.826,61.942-207.905,61.726
				L-207.905,61.726z"/>
		</g>
	</g>
</g>
<g>
	<g>
		<path fill="#FFFFFF" d="M-203.258,86.623c-9.457-0.864-8.302,15.883,0.878,14.036c2.356-0.475,1.356-4.067-0.991-3.596
			c-3.314,0.667-4.32-7.117,0.113-6.712C-200.863,90.57-200.884,86.84-203.258,86.623L-203.258,86.623z"/>
	</g>
</g>
<g>
	<path fill="#999999" d="M-126.035,131.117c0.768-3.646,0.575-7.678,0.191-11.133c-0.191-2.303,0.191-5.182-1.535-6.143
		c-1.92-0.959-77.486,0.385-79.598,0.385c-1.919,0-6.525-0.768-8.061,0c-2.111,0.959-1.535,3.646-1.535,5.758
		c0,2.303-1.729,10.748-0.385,12.477c1.728,1.727,89.386,1.727,90.537-0.385"/>
</g>
<g>
	<g>
		<g>
			<path fill="#FFFFFF" d="M-209.682,42.23c0.934-2.703,2.196-5.198,3.879-7.511c-0.684,0.179-1.368,0.358-2.052,0.538
				c2.979,1.748,3.845,5.529,5.604,8.291c1.036,1.626,3.633,0.123,2.591-1.515c-2.101-3.297-3.107-7.27-6.681-9.367
				c-0.758-0.445-1.572-0.121-2.052,0.538c-1.833,2.521-3.166,5.289-4.181,8.228C-213.208,43.266-210.309,44.047-209.682,42.23
				L-209.682,42.23z"/>
		</g>
	</g>
	<g>
		<g>
			<path fill="#FFFFFF" d="M-208.824,40.452c1.66,0.172,3.332,0.192,4.99,0.384c0.814,0.094,1.5-0.753,1.5-1.5
				c0-0.889-0.688-1.406-1.5-1.5c-1.658-0.191-3.33-0.212-4.99-0.384c-0.815-0.084-1.5,0.746-1.5,1.5
				C-210.324,39.833-209.637,40.368-208.824,40.452L-208.824,40.452z"/>
		</g>
	</g>
</g>
<g>
	<g>
		<g>
			<path fill="#FFFFFF" d="M-207.686,120.022c-0.011,2.887-0.229,5.93,0.972,8.627c0.786,1.765,3.371,0.237,2.591-1.514
				c-0.94-2.11-0.572-4.866-0.563-7.113C-204.678,118.088-207.678,118.088-207.686,120.022L-207.686,120.022z"/>
		</g>
	</g>
	<g>
		<g>
			<path fill="#FFFFFF" d="M-207.721,120.563c2.427-0.052,6.72,1.371,4.752,4.578c-1.319,2.15-4.352,1.727-6.267,2.727
				c-1.716,0.896-0.199,3.484,1.514,2.59c0.028-0.015,1.4-0.231,1.81-0.345c1.032-0.285,2.029-0.706,2.977-1.199
				c1.665-0.867,2.969-2.367,3.337-4.224c0.955-4.817-4.129-7.212-8.123-7.127C-209.652,117.604-209.656,120.604-207.721,120.563
				L-207.721,120.563z"/>
		</g>
	</g>
</g>
<g>
	<g>
		<g>
			<path fill="#BF3916" d="M-116.136,121.575c3.563,2.545,7.132,5.084,10.81,7.464c1.629,1.055,3.132-1.543,1.514-2.59
				c-3.677-2.38-7.245-4.919-10.81-7.464C-116.2,117.858-117.695,120.462-116.136,121.575L-116.136,121.575z"/>
		</g>
	</g>
	<g>
		<g>
			<path fill="#BF3916" d="M-107.689,118.962c-3.477,2.921-7.062,5.663-9.499,9.569c-1.028,1.646,1.568,3.15,2.59,1.514
				c2.287-3.664,5.771-6.223,9.03-8.962C-104.085,119.837-106.219,117.726-107.689,118.962L-107.689,118.962z"/>
		</g>
	</g>
</g>
<g>
	<path fill="#F4AB2B" d="M121.236,72.716c1.729-3.455,1.536-8.254,1.729-11.9c0-1.151,0.383-4.031-0.192-4.99
		c-1.151-1.152-75.566-0.768-77.102-0.768c-2.111,0-10.173-1.344-11.9,0c-2.111,1.343-2.495,10.748-2.687,13.052
		c0,1.151-0.385,3.263,0.191,4.223c1.152,2.303,3.455,1.535,5.95,1.535c4.606,0,80.173,0.576,84.396-0.384"/>
</g>
<g>
	<path fill="#722014" d="M122.965,101.117c0.768-3.646,0.575-7.678,0.191-11.133c-0.191-2.303,0.191-5.182-1.535-6.143
		c-1.92-0.959-77.486,0.385-79.598,0.385c-1.919,0-6.525-0.768-8.061,0c-2.111,0.959-1.535,3.646-1.535,5.758
		c0,2.303-1.729,10.748-0.385,12.477c1.728,1.727,89.386,1.727,90.537-0.385"/>
</g>
<g>
	<path fill="#00718C" d="M123.156,45.589c0.191-4.031-0.576-8.254-0.576-12.284c0-1.728,0.768-4.799-0.383-5.759
		c-1.344-1.151-77.486-0.575-79.406-0.575c-3.838-0.192-10.939-1.536-11.899,2.879c-0.575,2.688-0.192,6.334-0.575,9.213
		c-0.193,1.151-0.961,5.374-0.193,6.334c1.344,2.304,9.789,1.151,12.477,1.151c3.071,0,76.718,0.769,79.789-0.191"/>
</g>
<g>
	<g>
		<path fill="#F4AB2B" d="M131.7,93.301c1.297,1.738,2.35,3.638,3.647,5.375c0.697,0.935,1.901,0.982,2.59,0
			c2.137-3.045,4.171-6.126,6.867-8.718c1.397-1.343-0.727-3.461-2.121-2.121c-2.877,2.766-5.057,6.075-7.336,9.325
			c0.863,0,1.727,0,2.59,0c-1.297-1.738-2.35-3.638-3.647-5.375C133.147,90.256,130.541,91.749,131.7,93.301L131.7,93.301z"/>
	</g>
</g>
<g>
	<g>
		<path fill="#F4AB2B" d="M131.783,66.803c1.193,1.364,2.453,2.667,3.646,4.031c0.519,0.593,1.6,0.579,2.121,0
			c2.53-2.808,4.328-6.273,7.374-8.594c1.518-1.156,0.025-3.764-1.514-2.591c-3.308,2.521-5.24,6.021-7.981,9.064
			c0.707,0,1.414,0,2.121,0c-1.193-1.364-2.452-2.667-3.646-4.031C132.628,63.224,130.515,65.354,131.783,66.803L131.783,66.803z"/>
	</g>
</g>
<g>
	<g>
		<path fill="#F4AB2B" d="M130.589,38.396c0.752,1.289,1.55,2.55,2.303,3.839c0.51,0.874,1.639,0.939,2.355,0.304
			c2.816-2.496,5.271-5.367,8.254-7.677c1.528-1.183-0.612-3.29-2.121-2.121c-2.983,2.31-5.438,5.182-8.254,7.677
			c0.785,0.101,1.57,0.202,2.355,0.304c-0.752-1.289-1.55-2.55-2.303-3.839C132.205,35.212,129.611,36.721,130.589,38.396
			L130.589,38.396z"/>
	</g>
</g>
<g>
	<g>
		<g>
			<path fill="#FFFFFF" d="M39.595,62.337c0.197,1.983,0.379,3.967,0.575,5.95c0.188,1.907,3.19,1.925,3,0
				c-0.196-1.983-0.378-3.967-0.575-5.95C42.405,60.431,39.403,60.413,39.595,62.337L39.595,62.337z"/>
		</g>
	</g>
	<g>
		<g>
			<path fill="#FFFFFF" d="M41.095,61.726c0.875-0.099,1.744-0.181,2.626-0.164c1.639,0.032,0.616,1.113-0.515,1.194
				c-1.911,0.137-1.944,3.091,0,3c0.982-0.046,4.194,0.584,2.818,2.232c-0.826,0.99-3.259,0.586-4.339,0.388
				c-1.891-0.347-2.698,2.544-0.797,2.893c2.945,0.541,7.006,0.603,8.179-2.775c1.27-3.658-2.755-5.883-5.861-5.738c0,1,0,2,0,3
				c2.806-0.201,5.345-2.716,3.997-5.612c-0.962-2.066-4.339-1.618-6.108-1.418C39.194,58.94,39.174,61.942,41.095,61.726
				L41.095,61.726z"/>
		</g>
	</g>
</g>
<g>
	<g>
		<path fill="#FFFFFF" d="M45.742,86.623c-9.456-0.864-8.302,15.883,0.878,14.036c2.356-0.475,1.356-4.067-0.99-3.596
			c-3.315,0.667-4.32-7.117,0.112-6.712C48.137,90.57,48.116,86.84,45.742,86.623L45.742,86.623z"/>
	</g>
</g>
<g>
	<path fill="#999999" d="M122.965,131.117c0.768-3.646,0.575-7.678,0.191-11.133c-0.191-2.303,0.191-5.182-1.535-6.143
		c-1.92-0.959-77.486,0.385-79.598,0.385c-1.919,0-6.525-0.768-8.061,0c-2.111,0.959-1.535,3.646-1.535,5.758
		c0,2.303-1.729,10.748-0.385,12.477c1.728,1.727,89.386,1.727,90.537-0.385"/>
</g>
<g>
	<g>
		<g>
			<path fill="#FFFFFF" d="M39.318,42.23c0.934-2.703,2.196-5.198,3.879-7.511c-0.684,0.179-1.368,0.358-2.052,0.538
				c2.979,1.748,3.846,5.529,5.604,8.291c1.035,1.626,3.633,0.123,2.59-1.515c-2.101-3.297-3.106-7.27-6.681-9.367
				c-0.758-0.445-1.572-0.121-2.052,0.538c-1.834,2.521-3.166,5.289-4.182,8.228C35.792,43.266,38.69,44.047,39.318,42.23
				L39.318,42.23z"/>
		</g>
	</g>
	<g>
		<g>
			<path fill="#FFFFFF" d="M40.176,40.452c1.66,0.172,3.332,0.192,4.99,0.384c0.814,0.094,1.5-0.753,1.5-1.5
				c0-0.889-0.688-1.406-1.5-1.5c-1.658-0.191-3.33-0.212-4.99-0.384c-0.814-0.084-1.5,0.746-1.5,1.5
				C38.676,39.833,39.362,40.368,40.176,40.452L40.176,40.452z"/>
		</g>
	</g>
</g>
<g>
	<g>
		<g>
			<path fill="#FFFFFF" d="M41.314,120.022c-0.012,2.887-0.229,5.93,0.973,8.627c0.785,1.765,3.37,0.237,2.59-1.514
				c-0.939-2.11-0.571-4.866-0.563-7.113C44.322,118.088,41.322,118.088,41.314,120.022L41.314,120.022z"/>
		</g>
	</g>
	<g>
		<g>
			<path fill="#FFFFFF" d="M41.279,120.563c2.427-0.052,6.721,1.371,4.752,4.578c-1.318,2.15-4.352,1.727-6.267,2.727
				c-1.716,0.896-0.199,3.484,1.514,2.59c0.028-0.015,1.4-0.231,1.81-0.345c1.031-0.285,2.029-0.706,2.978-1.199
				c1.664-0.867,2.969-2.367,3.337-4.224c0.954-4.817-4.13-7.212-8.123-7.127C39.348,117.604,39.344,120.604,41.279,120.563
				L41.279,120.563z"/>
		</g>
	</g>
</g>
<g>
	<g>
		<g>
			<path fill="#BF3916" d="M132.864,121.575c3.563,2.545,7.132,5.084,10.81,7.464c1.629,1.055,3.132-1.543,1.514-2.59
				c-3.677-2.38-7.245-4.919-10.81-7.464C132.8,117.858,131.305,120.462,132.864,121.575L132.864,121.575z"/>
		</g>
	</g>
	<g>
		<g>
			<path fill="#BF3916" d="M141.311,118.962c-3.477,2.921-7.062,5.663-9.499,9.569c-1.028,1.646,1.568,3.15,2.59,1.514
				c2.287-3.664,5.771-6.223,9.03-8.962C144.915,119.837,142.781,117.726,141.311,118.962L141.311,118.962z"/>
		</g>
	</g>
</g>
</svg>
