<?xml version="1.0" encoding="utf-8"?>
<!-- Generator: Adobe Illustrator 16.0.0, SVG Export Plug-In . SVG Version: 6.00 Build 0)  -->
<!DOCTYPE svg PUBLIC "-//W3C//DTD SVG 1.1//EN" "http://www.w3.org/Graphics/SVG/1.1/DTD/svg11.dtd">
<svg version="1.1" id="Layer_1" xmlns="http://www.w3.org/2000/svg" xmlns:xlink="http://www.w3.org/1999/xlink" x="0px" y="0px"
	 width="424px" height="506px" viewBox="0 0 424 506" enable-background="new 0 0 424 506" xml:space="preserve">
<path fill="#62873D" d="M332.229,216.222c3.115,0,5.664,2.841,5.664,6.31v21.362c0,3.47-2.549,6.31-5.664,6.31
	c-3.113,0-5.656-2.84-5.656-6.31v-21.362C326.573,219.063,329.116,216.222,332.229,216.222z"/>
<path fill="#62873D" d="M332.229,148.255c3.115,0,5.664,2.839,5.664,6.31v21.361c0,3.471-2.549,6.311-5.664,6.311
	c-3.113,0-5.656-2.84-5.656-6.311v-21.361C326.573,151.094,329.116,148.255,332.229,148.255z"/>
<path fill="#FFFFFF" d="M200.416,353.227c0.071,2.991,0.106,4.914,0.106,5.767c0,2.139-0.092,5.349-0.274,9.627
	c-0.183,4.281-0.275,7.48-0.275,9.604c0,0.504,0.288,0.756,0.863,0.756c0.713,0,1.783-0.034,3.209-0.104
	c1.426-0.07,2.494-0.104,3.209-0.104c0.747,0,1.87,0.038,3.365,0.116c1.498,0.079,2.611,0.119,3.338,0.119
	c0.523,0,0.782-0.262,0.782-0.783c0-2.123-0.086-5.322-0.269-9.604c-0.185-4.278-0.276-7.488-0.276-9.627
	c0-0.887,0.035-2.861,0.105-5.924c4.139,0.227,6.314,0.353,6.547,0.383c0.363-0.008,0.551-0.174,0.551-0.514
	c0-0.59-0.08-1.469-0.238-2.635c-0.154-1.165-0.232-2.043-0.232-2.635c0-0.626,0.043-1.57,0.129-2.831
	c0.088-1.261,0.131-2.205,0.131-2.831c0-0.261-0.26-0.392-0.781-0.392c-0.156,0-1.295,0.104-3.42,0.313
	c-4.26,0.4-7.165,0.6-8.714,0.6c-5.079,0-9.358-0.19-12.837-0.574c-0.209-0.034-0.349-0.052-0.418-0.052
	c-0.208,0-0.339,0.069-0.394,0.209c-0.295,2.244-0.468,4.166-0.52,5.766c-0.037,0.297-0.22,1.305-0.547,3.027
	c-0.297,1.583-0.445,2.47-0.445,2.661c0,0.035,0.14,0.113,0.418,0.234C196.591,353.522,198.888,353.331,200.416,353.227z"/>
<path fill="#FFFFFF" d="M178.683,379.997c2.434,0,4.793-0.46,7.071-1.383c2.522-1.011,4.471-2.4,5.845-4.175
	c0.4-0.521,0.601-0.948,0.601-1.278c0-0.486-0.966-2.174-2.896-5.063c-1.916-2.817-2.976-4.227-3.184-4.227
	c-0.121,0-0.304,0.139-0.55,0.418c-1.512,1.67-3.671,2.504-6.469,2.504c-1.671,0-3.084-0.613-4.24-1.84
	c-1.156-1.226-1.735-2.682-1.735-4.369c0-1.67,0.579-3.11,1.735-4.318c1.156-1.209,2.569-1.813,4.24-1.813
	c1.322,0,2.572,0.278,3.758,0.835c0.765,0.365,1.557,0.887,2.374,1.564c0.679,0.574,1.061,0.861,1.147,0.861
	c0.227,0,0.47-0.104,0.731-0.313c0.33-0.261,1.314-1.875,2.961-4.84c1.644-2.966,2.466-4.632,2.466-4.997
	c0-0.313-0.211-0.67-0.626-1.07c-3.412-3.392-7.819-5.088-13.229-5.088c-5.375,0-9.945,1.884-13.712,5.649
	c-3.766,3.766-5.648,8.336-5.648,13.711c0,5.358,1.883,9.902,5.648,13.635C168.737,378.132,173.308,379.997,178.683,379.997z"/>
<path fill="#FFFFFF" d="M160.026,425.738c0.696,0,1.753-0.034,3.169-0.104c1.419-0.069,2.476-0.104,3.171-0.104
	c0.714,0,1.784,0.034,3.208,0.104c1.429,0.07,2.498,0.104,3.212,0.104c0.417,0,0.695-0.383,0.835-1.148
	c0.156-0.869,0.582-1.413,1.278-1.631c0.695-0.217,3.07-0.326,7.123-0.326c0.661,0,0.989,0.348,0.989,1.044c0,0.869,0,1.296,0,1.296
	c0.072,0.502,0.331,0.766,0.786,0.766c0.747,0,1.86-0.034,3.339-0.104c1.477-0.069,2.59-0.104,3.34-0.104
	c0.748,0,1.879,0.034,3.393,0.104c1.513,0.07,2.644,0.104,3.39,0.104c0.698,0,1.044-0.121,1.044-0.365
	c0-0.069-0.024-0.183-0.078-0.339c-0.853-2.279-2.012-5.767-3.481-10.463c-1.471-4.697-2.643-8.202-3.51-10.516
	c-1.826-4.437-3.235-7.75-4.228-9.941c-1.252-2.854-1.965-4.41-2.142-4.672c-0.397-0.59-0.745-0.887-1.041-0.887
	c-0.087,0-0.235,0.035-0.443,0.104c-0.974,0.243-2.688,0.366-5.141,0.366c-0.611,0-1.51-0.078-2.7-0.235
	c-1.192-0.157-2.092-0.235-2.701-0.235c-0.417,0-0.687,0.049-0.811,0.145c-0.12,0.096-0.261,0.36-0.415,0.795
	c-8.23,23.205-12.343,35.068-12.343,35.591C159.27,425.521,159.52,425.738,160.026,425.738z M178.604,405.099
	c1.53,0.922,2.296,2.07,2.296,3.445c0,0.608-0.229,1.143-0.679,1.604c-0.452,0.461-0.991,0.691-1.617,0.691
	c-0.608,0-1.144-0.23-1.606-0.691c-0.459-0.461-0.689-0.995-0.689-1.604C176.309,407.36,177.072,406.212,178.604,405.099z"/>
<path fill="#FFFFFF" d="M256.466,378.224c0,0.504,0.283,0.756,0.861,0.756c0.678,0,1.699-0.034,3.064-0.104
	c1.363-0.07,2.389-0.104,3.066-0.104c0.627,0,1.566,0.034,2.828,0.104c1.262,0.069,2.207,0.104,2.834,0.104
	c0.539,0,0.809-0.32,0.809-0.965c0-1.356-0.051-3.396-0.158-6.119c-0.102-2.722-0.156-4.762-0.156-6.118
	c0-0.505,0.121-0.757,0.365-0.757c0.523,0,3.941,4.365,10.256,13.098c0.418,0.574,0.775,0.861,1.068,0.861
	c0.611,0,1.516-0.034,2.715-0.104c1.201-0.07,2.096-0.104,2.688-0.104c0.574,0,1.432,0.034,2.57,0.104
	c1.139,0.069,1.996,0.104,2.57,0.104c0.607,0,0.914-0.199,0.914-0.6l0.051-17.352c0-2.001,0.096-4.997,0.287-8.989
	s0.289-6.979,0.289-8.963c0-0.469-0.16-0.704-0.471-0.704c-0.748,0-1.871,0.025-3.365,0.078c-1.498,0.053-2.619,0.078-3.367,0.078
	c-0.697,0-1.74-0.025-3.131-0.078c-1.393-0.053-2.436-0.078-3.133-0.078c-0.35,0-0.521,0.339-0.521,1.018
	c0,1.339,0.113,3.361,0.34,6.066s0.34,4.728,0.34,6.066c0,1.01-0.086,1.574-0.262,1.696c-2.887-3.739-5-6.593-6.34-8.561
	c-2.506-3.512-3.906-5.504-4.201-5.973c-0.469-0.748-0.826-1.122-1.07-1.122c-0.697,0-1.617,0.104-2.766,0.313
	c-1.512,0.261-2.443,0.409-2.793,0.443c-2.607,0.296-4.307,0.444-5.086,0.444c-0.715,0-1.072,0.191-1.072,0.573
	c0,1.967,0.084,4.928,0.25,8.885c0.166,3.958,0.248,6.928,0.248,8.91c0,1.896-0.09,4.745-0.262,8.547
	C256.552,373.479,256.466,376.327,256.466,378.224z"/>
<path fill="#FFFFFF" d="M157.286,414.519c0-0.939,0.081-2.349,0.248-4.227c0.166-1.879,0.248-3.289,0.248-4.229
	c0-0.417-0.252-0.628-0.757-0.628c-0.766,0-1.913,0.037-3.443,0.106c-1.531,0.07-2.68,0.104-3.445,0.104
	c-2.208,0-3.922-0.069-5.14-0.211c-0.817-0.102-1.287-0.154-1.409-0.154c-0.261,0-0.443,0.053-0.548,0.154
	c-0.072,0.159-0.106,0.333-0.106,0.524c0,0.922,0.089,2.141,0.261,3.652c0.245,2.019,0.385,3.244,0.42,3.68
	c-0.907,0.418-1.923,0.626-3.055,0.626c-1.67,0-3.119-0.644-4.345-1.931c-1.227-1.287-1.838-2.775-1.838-4.462
	s0.576-3.136,1.735-4.345c1.156-1.209,2.57-1.813,4.24-1.813c1.583,0,3.031,0.413,4.345,1.24c1.313,0.825,2.117,1.239,2.413,1.239
	c0.348,0,0.695-0.113,1.044-0.34c0.661-0.417,1.896-1.627,3.705-3.627c1.931-2.139,2.896-3.471,2.896-3.992
	c0-0.33-0.166-0.73-0.496-1.199c-1.374-1.967-3.557-3.566-6.549-4.803c-2.748-1.148-5.412-1.721-7.984-1.721
	c-5.41,0-9.989,1.873-13.738,5.623c-3.749,3.748-5.623,8.328-5.623,13.737c0,5.288,1.898,9.815,5.701,13.581
	c3.801,3.767,8.354,5.649,13.66,5.649c2.975,0,6.157-0.869,9.55-2.609c0.815,0.018,2.096,0.183,3.835,0.495
	c1.688,0.297,2.966,0.444,3.836,0.444c0.607,0,0.914-0.261,0.914-0.782c0-0.992-0.096-2.597-0.288-4.815
	C157.382,417.271,157.286,415.614,157.286,414.519z"/>
<path fill="#FFFFFF" d="M119.791,378.979c0.696,0,1.753-0.034,3.17-0.104c1.416-0.07,2.476-0.104,3.171-0.104
	c0.713,0,1.783,0.034,3.209,0.104c1.427,0.069,2.495,0.104,3.21,0.104c0.417,0,0.693-0.383,0.835-1.148
	c0.156-0.869,0.583-1.412,1.278-1.631c0.695-0.217,3.07-0.325,7.123-0.325c0.662,0,0.992,0.349,0.992,1.044c0,0.869,0,1.295,0,1.295
	c0.069,0.503,0.33,0.766,0.783,0.766c0.745,0,1.858-0.034,3.339-0.104c1.479-0.07,2.593-0.104,3.34-0.104
	c0.746,0,1.879,0.034,3.393,0.104c1.514,0.069,2.645,0.104,3.392,0.104c0.696,0,1.044-0.121,1.044-0.365
	c0-0.069-0.025-0.182-0.078-0.339c-0.853-2.278-2.014-5.767-3.483-10.464c-1.471-4.696-2.64-8.201-3.51-10.516
	c-1.826-4.436-3.235-7.749-4.228-9.94c-1.252-2.853-1.965-4.409-2.139-4.67c-0.402-0.592-0.748-0.888-1.044-0.888
	c-0.087,0-0.235,0.035-0.443,0.104c-0.974,0.243-2.688,0.365-5.141,0.365c-0.608,0-1.509-0.078-2.7-0.235
	c-1.192-0.156-2.095-0.234-2.701-0.234c-0.417,0-0.687,0.048-0.809,0.144s-0.261,0.36-0.417,0.796
	c-8.229,23.205-12.345,35.068-12.345,35.59C119.032,378.763,119.287,378.979,119.791,378.979z M138.367,358.341
	c1.533,0.922,2.298,2.07,2.298,3.443c0,0.609-0.226,1.145-0.678,1.605c-0.453,0.461-0.992,0.691-1.62,0.691
	c-0.606,0-1.142-0.23-1.603-0.691s-0.691-0.996-0.691-1.605C136.073,360.602,136.838,359.454,138.367,358.341z"/>
<path fill="#FFFFFF" d="M220.978,402.437c-0.121,0-0.564-0.713-1.33-2.139c-2.156-4.018-4.182-7.559-6.08-10.62
	c-0.468-0.766-0.781-1.147-0.938-1.147c-0.643,0-1.626,0.074-2.946,0.221c-1.326,0.148-2.307,0.223-2.949,0.223
	c-0.575,0-1.437,0.025-2.583,0.078c-1.149,0.053-2.01,0.078-2.586,0.078c-0.781,0-1.173,0.191-1.173,0.574
	c0,2.018,0.083,5.049,0.246,9.094c0.168,4.044,0.25,7.075,0.25,9.093c0,1.896-0.087,4.745-0.261,8.546
	c-0.177,3.801-0.261,6.649-0.261,8.545c0,0.505,0.287,0.757,0.861,0.757c0.678,0,1.7-0.034,3.065-0.104
	c1.366-0.069,2.388-0.104,3.064-0.104c0.697,0,1.732,0.034,3.106,0.104c1.375,0.07,2.408,0.104,3.104,0.104
	c0.524,0,0.784-0.322,0.784-0.966c0-1.165-0.052-2.927-0.157-5.284c-0.103-2.356-0.158-4.118-0.158-5.282
	c0-0.506,0.056-0.758,0.158-0.758c0.348,0,1.426,2.191,3.236,6.575c1.809,4.385,2.957,6.576,3.443,6.576
	c0.348,0,1.467-2.191,3.354-6.576c1.887-4.384,2.996-6.575,3.326-6.575c0.105,0,0.158,0.252,0.158,0.758
	c0,1.164-0.053,2.926-0.158,5.282c-0.104,2.357-0.16,4.119-0.16,5.284c0,0.644,0.273,0.966,0.814,0.966
	c0.678,0,1.707-0.034,3.09-0.104c1.385-0.069,2.414-0.104,3.092-0.104c0.697,0,1.725,0.034,3.094,0.104
	c1.363,0.07,2.387,0.104,3.066,0.104c0.572,0,0.861-0.252,0.861-0.757c0-1.896-0.094-4.744-0.275-8.545
	c-0.184-3.801-0.275-6.649-0.275-8.546c0-2.07,0.088-5.166,0.262-9.29c0.174-4.121,0.26-7.209,0.26-9.262
	c0-0.4-0.207-0.602-0.625-0.602c-0.643,0-1.6,0.059-2.859,0.171c-1.262,0.113-2.213,0.169-2.855,0.169
	c-0.66,0-1.65-0.034-2.973-0.104c-1.324-0.07-2.305-0.104-2.949-0.104c-0.314,0-0.67,0.374-1.072,1.122
	c-0.26,0.47-1.277,2.191-3.051,5.166c-1.234,2.105-2.156,3.87-2.766,5.297C221.657,401.776,221.239,402.437,220.978,402.437z"/>
<path fill="#FFFFFF" d="M245.714,389.73l0.027,0.365c0.139,2.767,0.232,4.844,0.287,6.235c0.191,5.41,0.287,9.104,0.287,11.09
	c0,1.948-0.107,4.875-0.313,8.781c-0.211,3.904-0.318,6.831-0.318,8.779c0,0.505,0.289,0.757,0.865,0.757
	c1.375,0,3.441-0.034,6.211-0.104c2.762-0.069,4.842-0.104,6.234-0.104c5.061,0,9.125,0.208,12.186,0.626
	c0.314,0.052,0.557,0.078,0.73,0.078c0.559,0,0.881-0.202,0.967-0.601c0.434-2.331,0.719-4.097,0.861-5.297
	c0.033-0.191,0.207-1.035,0.521-2.531c0.223-1.061,0.338-1.904,0.338-2.531c0-0.417-0.217-0.625-0.652-0.625
	c-0.645,0-1.605,0.056-2.883,0.17c-1.277,0.112-2.238,0.169-2.885,0.169c-4.729,0-7.35-0.209-7.852-0.627
	c-0.209-0.19-0.316-0.495-0.316-0.913c0-0.869,0.795-1.305,2.375-1.305c2.438,0,4.586,0.113,6.447,0.34
	c1.67,0.208,2.424,0.313,2.27,0.313c0.539,0,0.809-0.191,0.809-0.574c0-0.992,0.113-2.652,0.34-4.982
	c0.018-0.314,0.131-1.088,0.338-2.323c0.158-1.009,0.236-1.757,0.236-2.244c0-0.481-0.221-0.718-0.633-0.739
	c-0.152,0.031-0.887,0.113-2.213,0.244c-1.338,0.139-2.738,0.209-4.199,0.209c-1.775,0-2.887-0.026-3.34-0.079
	c-1.617-0.211-2.43-0.729-2.43-1.565c0-0.609,0.682-0.975,2.039-1.096c0.225-0.018,1.111-0.026,2.66-0.026
	c0.957,0,2.383,0.096,4.279,0.288c1.895,0.191,3.314,0.286,4.254,0.286c0.365,0,0.547-0.174,0.547-0.521
	c0-0.384-0.131-1.927-0.391-4.632s-0.438-4.231-0.521-4.579c-0.191-0.888-0.773-1.331-1.748-1.331c-1.395,0-3.48,0.035-6.264,0.104
	s-4.861,0.104-6.236,0.104s-3.422-0.035-6.145-0.104c-2.721-0.069-4.762-0.104-6.117-0.104
	C245.897,389.13,245.681,389.33,245.714,389.73z"/>
<path fill="#FFFFFF" d="M292.603,387.982c0.104,0-0.164,0.043-0.807,0.13c-3.568,0.505-6.594,1.618-9.082,3.34
	c-3.061,2.123-4.594,4.802-4.594,8.037c0,1.861,0.385,3.505,1.15,4.931c0.018,0.036,0.73,1.062,2.139,3.079
	c0.766,1.113,1.148,2.209,1.148,3.287c0,1.219-0.576,2.385-1.725,3.497c-0.729,0.696-1.799,1.452-3.207,2.271
	c-1.146,0.678-1.723,1.078-1.723,1.199c0,0.036,0.879,1.671,2.637,4.906c1.861,3.427,2.861,5.271,2.998,5.531
	c0.193,0.384,0.393,0.575,0.602,0.575c0.123,0,0.297-0.027,0.521-0.079c2.594-0.766,5.168-1.888,7.725-3.366
	c3.045-1.773,5.115-3.574,6.209-5.401c1.045-1.722,1.564-3.704,1.564-5.949c0-1.826-0.668-3.883-2.006-6.17
	c-1.34-2.287-2.01-3.823-2.01-4.605c0-1.113,0.744-2.175,2.23-3.184s2.23-1.549,2.23-1.617c0-0.07-0.027-0.148-0.078-0.236
	c-2.939-4.521-4.791-7.723-5.561-9.602C292.812,388.173,292.69,387.982,292.603,387.982z"/>
<path fill="#FFFFFF" d="M237.337,378.224c0,0.504,0.287,0.756,0.863,0.756c0.713,0,1.787-0.034,3.221-0.104
	c1.436-0.07,2.512-0.104,3.225-0.104c0.764,0,1.896,0.038,3.404,0.116c1.504,0.079,2.631,0.119,3.379,0.119
	c0.506,0,0.754-0.262,0.754-0.783c0-2.123-0.084-5.322-0.26-9.604c-0.172-4.278-0.262-7.488-0.262-9.627
	c0-1.774,0.084-4.44,0.25-7.998c0.166-3.557,0.248-6.223,0.248-7.997c0-0.418-0.225-0.626-0.68-0.626
	c-0.711,0-1.799,0.034-3.26,0.104c-1.461,0.069-2.557,0.104-3.289,0.104c-0.781,0-1.943-0.034-3.482-0.104
	c-1.539-0.07-2.691-0.104-3.457-0.104c-0.418,0-0.627,0.191-0.627,0.574c0,1.757,0.084,4.422,0.248,7.997
	c0.166,3.575,0.246,6.257,0.246,8.05c0,2.139-0.086,5.349-0.262,9.627C237.425,372.901,237.337,376.101,237.337,378.224z"/>
<path fill="#0F425A" d="M138.367,364.081c0.628,0,1.167-0.23,1.62-0.691c0.452-0.461,0.678-0.996,0.678-1.605
	c0-1.373-0.765-2.521-2.298-3.443c-1.529,1.113-2.294,2.261-2.294,3.443c0,0.609,0.23,1.145,0.691,1.605
	S137.761,364.081,138.367,364.081z"/>
<path fill="#0F425A" d="M178.604,410.839c0.626,0,1.165-0.23,1.617-0.691c0.45-0.461,0.679-0.995,0.679-1.604
	c0-1.375-0.766-2.523-2.296-3.445c-1.532,1.113-2.296,2.262-2.296,3.445c0,0.608,0.23,1.143,0.689,1.604
	C177.461,410.608,177.996,410.839,178.604,410.839z"/>
<path fill="#F5B43D" d="M167.016,97.576c0,3.111-2.625,5.659-5.83,5.659h-17.323c-3.208,0-5.83-2.548-5.83-5.659
	c0-3.112,2.622-5.66,5.83-5.66h17.323C164.391,91.916,167.016,94.464,167.016,97.576z"/>
<path fill="#F5B43D" d="M285.95,97.576c0,3.111-2.625,5.659-5.83,5.659h-17.324c-3.207,0-5.83-2.548-5.83-5.659
	c0-3.112,2.623-5.66,5.83-5.66h17.324C283.325,91.916,285.95,94.464,285.95,97.576z"/>
<path fill="#F15E57" d="M91.752,216.222c3.114,0,5.66,2.841,5.66,6.31v21.362c0,3.47-2.546,6.31-5.66,6.31
	c-3.113,0-5.659-2.84-5.659-6.31v-21.362C86.093,219.063,88.639,216.222,91.752,216.222z"/>
<path fill="#F15E57" d="M91.752,148.255c3.114,0,5.66,2.839,5.66,6.31v21.361c0,3.471-2.546,6.311-5.66,6.311
	c-3.113,0-5.659-2.84-5.659-6.311v-21.361C86.093,151.094,88.639,148.255,91.752,148.255z"/>
<path fill="#F5B43D" d="M107.263,103.24c-1.049,0.065-2.112,0.018-3.162,0.018c-0.189,0-0.38,0-0.569,0H99.13
	c-0.313,0.073-0.608,0.191-0.883,0.348c-0.765,0.443-1.332,1.191-1.544,2.079v4.396c0,0.209,0,0.417,0,0.631
	c0,1.835,0.22,3.818-0.441,5.566c-0.807,2.139-2.885,3.831-5.219,3.831c-0.701,0-1.502-0.183-2.144-0.466
	c-1.181-0.518-2.144-1.578-2.748-2.7c-0.755-1.409-0.785-3.062-0.771-4.628c0.02-1.878-0.004-3.757,0.003-5.631
	c0.004-1.161,0-2.318,0-3.475v-2.07c0-5.075,4.131-9.202,9.206-9.202c3.081,0,6.173-0.021,9.259,0
	c1.863,0.01,3.799-0.165,5.607,0.379c2.283,0.688,4.12,2.852,4.12,5.283c0,2.458-1.85,4.593-4.146,5.279
	C108.721,103.092,107.995,103.197,107.263,103.24z"/>
<path fill="#F5B43D" d="M325.856,113.799c-0.066-1.048-0.018-2.113-0.018-3.161c0-0.191,0-0.383,0-0.57v-4.4
	c-0.074-0.313-0.193-0.609-0.348-0.883c-0.445-0.766-1.191-1.33-2.08-1.544h-4.396c-0.209,0-0.416,0-0.631,0
	c-1.836,0-3.818,0.218-5.566-0.443c-2.139-0.805-3.832-2.884-3.832-5.219c0-0.7,0.184-1.5,0.467-2.14
	c0.518-1.183,1.578-2.148,2.695-2.748c1.414-0.758,3.066-0.787,4.633-0.774c1.879,0.021,3.758-0.005,5.631,0.004
	c1.16,0.005,2.318,0,3.471,0h2.074c5.074,0,9.201,4.132,9.201,9.207c0,3.078,0.023,6.171,0,9.258
	c-0.008,1.866,0.166,3.797-0.379,5.611c-0.689,2.278-2.852,4.117-5.281,4.117c-2.463,0-4.594-1.852-5.281-4.148
	C326.005,115.256,325.899,114.53,325.856,113.799z"/>
<path fill="none" d="M194.743,414.571c-1.471-4.697-2.643-8.202-3.51-10.516c-1.826-4.437-3.235-7.75-4.228-9.941
	c-1.252-2.854-1.965-4.41-2.142-4.672c-0.397-0.59-0.745-0.887-1.041-0.887c-0.087,0-0.235,0.035-0.443,0.104
	c-0.974,0.243-2.688,0.366-5.141,0.366c-0.611,0-1.51-0.078-2.7-0.235c-1.192-0.157-2.092-0.235-2.701-0.235
	c-0.417,0-0.687,0.049-0.811,0.145c-0.12,0.096-0.261,0.36-0.415,0.795c-8.23,23.205-12.343,35.068-12.343,35.591
	c0,0.436,0.25,0.652,0.757,0.652c0.696,0,1.753-0.034,3.169-0.104c1.419-0.069,2.476-0.104,3.171-0.104
	c0.714,0,1.784,0.034,3.208,0.104c1.429,0.07,2.498,0.104,3.212,0.104c0.417,0,0.695-0.383,0.835-1.148
	c0.156-0.869,0.582-1.413,1.278-1.631c0.695-0.217,3.07-0.326,7.123-0.326c0.661,0,0.989,0.348,0.989,1.044c0,0.869,0,1.278,0,1.278
	c0.072,0.52,0.331,0.783,0.786,0.783c0.747,0,1.86-0.034,3.339-0.104c1.477-0.069,2.59-0.104,3.34-0.104
	c0.748,0,1.879,0.034,3.393,0.104c1.513,0.07,2.644,0.104,3.39,0.104c0.698,0,1.044-0.121,1.044-0.365
	c0-0.069-0.024-0.183-0.078-0.339C197.372,422.755,196.213,419.268,194.743,414.571z"/>
<path fill="none" d="M204.045,378.876c1.426-0.07,2.494-0.104,3.209-0.104c0.747,0,1.87,0.038,3.365,0.116
	c1.498,0.079,2.611,0.119,3.338,0.119c0.523,0,0.782-0.262,0.782-0.783c0-2.123-0.086-5.322-0.269-9.604
	c-0.185-4.278-0.276-7.488-0.276-9.627c0-0.887,0.035-2.861,0.105-5.924c4.139,0.227,6.314,0.353,6.547,0.383
	c0.363-0.008,0.551-0.174,0.551-0.514c0-0.59-0.08-1.469-0.238-2.635c-0.154-1.165-0.232-2.043-0.232-2.635
	c0-0.626,0.043-1.57,0.129-2.831c0.088-1.261,0.131-2.205,0.131-2.831c0-0.261-0.26-0.392-0.781-0.392
	c-0.156,0-1.295,0.104-3.42,0.313c-4.26,0.4-7.165,0.6-8.714,0.6c-5.079,0-9.358-0.19-12.837-0.574
	c-0.209-0.034-0.349-0.052-0.418-0.052c-0.208,0-0.339,0.069-0.394,0.209c-0.295,2.244-0.468,4.166-0.52,5.766
	c-0.037,0.297-0.22,1.305-0.547,3.027c-0.297,1.583-0.445,2.47-0.445,2.661c0,0.035,0.14,0.113,0.418,0.234
	c3.062-0.277,5.358-0.469,6.887-0.573c0.071,2.991,0.106,4.914,0.106,5.767c0,2.139-0.092,5.349-0.274,9.627
	c-0.183,4.281-0.275,7.48-0.275,9.604c0,0.504,0.288,0.756,0.863,0.756C201.549,378.979,202.619,378.945,204.045,378.876z"/>
<path fill="none" d="M240.86,407.891c0-2.07,0.088-5.166,0.262-9.29c0.174-4.121,0.26-7.209,0.26-9.262
	c0-0.4-0.207-0.602-0.625-0.602c-0.643,0-1.6,0.059-2.859,0.171c-1.262,0.113-2.213,0.169-2.855,0.169
	c-0.66,0-1.65-0.034-2.973-0.104c-1.324-0.07-2.305-0.104-2.949-0.104c-0.314,0-0.67,0.374-1.072,1.122
	c-0.26,0.47-1.277,2.191-3.051,5.166c-1.234,2.105-2.156,3.87-2.766,5.297c-0.574,1.322-0.992,1.982-1.254,1.982
	c-0.121,0-0.564-0.713-1.33-2.139c-2.156-4.018-4.182-7.559-6.08-10.62c-0.468-0.766-0.781-1.147-0.938-1.147
	c-0.643,0-1.626,0.074-2.946,0.221c-1.326,0.148-2.307,0.223-2.949,0.223c-0.575,0-1.437,0.025-2.583,0.078
	c-1.149,0.053-2.01,0.078-2.586,0.078c-0.781,0-1.173,0.191-1.173,0.574c0,2.018,0.083,5.049,0.246,9.094
	c0.168,4.044,0.25,7.075,0.25,9.093c0,1.896-0.087,4.745-0.261,8.546c-0.177,3.801-0.261,6.649-0.261,8.545
	c0,0.505,0.287,0.757,0.861,0.757c0.678,0,1.7-0.034,3.065-0.104c1.366-0.069,2.388-0.104,3.064-0.104
	c0.697,0,1.732,0.034,3.106,0.104c1.375,0.07,2.408,0.104,3.104,0.104c0.524,0,0.784-0.322,0.784-0.966
	c0-1.165-0.052-2.927-0.157-5.284c-0.103-2.356-0.158-4.118-0.158-5.282c0-0.506,0.056-0.758,0.158-0.758
	c0.348,0,1.426,2.191,3.236,6.575c1.809,4.385,2.957,6.576,3.443,6.576c0.348,0,1.467-2.191,3.354-6.576
	c1.887-4.384,2.996-6.575,3.326-6.575c0.105,0,0.158,0.252,0.158,0.758c0,1.164-0.053,2.926-0.158,5.282
	c-0.104,2.357-0.16,4.119-0.16,5.284c0,0.644,0.273,0.966,0.814,0.966c0.678,0,1.707-0.034,3.09-0.104
	c1.385-0.069,2.414-0.104,3.092-0.104c0.697,0,1.725,0.034,3.094,0.104c1.363,0.07,2.387,0.104,3.066,0.104
	c0.572,0,0.861-0.252,0.861-0.757c0-1.896-0.094-4.744-0.275-8.545C240.952,412.636,240.86,409.787,240.86,407.891z"/>
<path fill="none" d="M178.683,379.997c2.434,0,4.793-0.46,7.071-1.383c2.522-1.011,4.471-2.4,5.845-4.175
	c0.4-0.521,0.601-0.948,0.601-1.278c0-0.486-0.966-2.174-2.896-5.063c-1.916-2.817-2.976-4.227-3.184-4.227
	c-0.121,0-0.304,0.139-0.55,0.418c-1.512,1.67-3.671,2.504-6.469,2.504c-1.671,0-3.084-0.613-4.24-1.84
	c-1.156-1.226-1.735-2.682-1.735-4.369c0-1.67,0.579-3.11,1.735-4.318c1.156-1.209,2.569-1.813,4.24-1.813
	c1.322,0,2.572,0.278,3.758,0.835c0.765,0.365,1.557,0.887,2.374,1.564c0.679,0.574,1.061,0.861,1.147,0.861
	c0.227,0,0.47-0.104,0.731-0.313c0.33-0.261,1.314-1.875,2.961-4.84c1.644-2.966,2.466-4.632,2.466-4.997
	c0-0.313-0.211-0.67-0.626-1.07c-3.412-3.392-7.819-5.088-13.229-5.088c-5.375,0-9.945,1.884-13.712,5.649
	c-3.766,3.766-5.648,8.336-5.648,13.711c0,5.358,1.883,9.902,5.648,13.635C168.737,378.132,173.308,379.997,178.683,379.997z"/>
<path fill="none" d="M154.508,367.812c-1.471-4.696-2.64-8.201-3.51-10.516c-1.826-4.436-3.235-7.749-4.228-9.94
	c-1.252-2.853-1.965-4.409-2.139-4.67c-0.402-0.592-0.748-0.888-1.044-0.888c-0.087,0-0.235,0.035-0.443,0.104
	c-0.974,0.243-2.688,0.365-5.141,0.365c-0.608,0-1.509-0.078-2.7-0.235c-1.192-0.156-2.095-0.234-2.701-0.234
	c-0.417,0-0.687,0.048-0.809,0.144s-0.261,0.36-0.417,0.796c-8.229,23.205-12.345,35.068-12.345,35.59
	c0,0.436,0.255,0.652,0.759,0.652c0.696,0,1.753-0.034,3.17-0.104c1.416-0.07,2.476-0.104,3.171-0.104
	c0.713,0,1.783,0.034,3.209,0.104c1.427,0.069,2.495,0.104,3.21,0.104c0.417,0,0.693-0.383,0.835-1.148
	c0.156-0.869,0.583-1.412,1.278-1.631c0.695-0.217,3.07-0.325,7.123-0.325c0.662,0,0.992,0.349,0.992,1.044c0,0.869,0,1.277,0,1.277
	c0.069,0.521,0.33,0.783,0.783,0.783c0.745,0,1.858-0.034,3.339-0.104c1.479-0.07,2.593-0.104,3.34-0.104
	c0.746,0,1.879,0.034,3.393,0.104c1.514,0.069,2.645,0.104,3.392,0.104c0.696,0,1.044-0.121,1.044-0.365
	c0-0.069-0.025-0.182-0.078-0.339C157.139,375.997,155.978,372.509,154.508,367.812z"/>
<path fill="none" d="M256.466,378.224c0,0.504,0.283,0.756,0.861,0.756c0.678,0,1.699-0.034,3.064-0.104
	c1.363-0.07,2.389-0.104,3.066-0.104c0.627,0,1.566,0.034,2.828,0.104c1.262,0.069,2.207,0.104,2.834,0.104
	c0.539,0,0.809-0.32,0.809-0.965c0-1.356-0.051-3.396-0.158-6.119c-0.102-2.722-0.156-4.762-0.156-6.118
	c0-0.505,0.121-0.757,0.365-0.757c0.523,0,3.941,4.365,10.256,13.098c0.418,0.574,0.775,0.861,1.068,0.861
	c0.611,0,1.516-0.034,2.715-0.104c1.201-0.07,2.096-0.104,2.688-0.104c0.574,0,1.432,0.034,2.57,0.104
	c1.139,0.069,1.996,0.104,2.57,0.104c0.607,0,0.914-0.199,0.914-0.6l0.051-17.352c0-2.001,0.096-4.997,0.287-8.989
	s0.289-6.979,0.289-8.963c0-0.469-0.16-0.704-0.471-0.704c-0.748,0-1.871,0.025-3.365,0.078c-1.498,0.053-2.619,0.078-3.367,0.078
	c-0.697,0-1.74-0.025-3.131-0.078c-1.393-0.053-2.436-0.078-3.133-0.078c-0.35,0-0.521,0.339-0.521,1.018
	c0,1.339,0.113,3.361,0.34,6.066s0.34,4.728,0.34,6.066c0,1.01-0.086,1.574-0.262,1.696c-2.887-3.739-5-6.593-6.34-8.561
	c-2.506-3.512-3.906-5.504-4.201-5.973c-0.469-0.748-0.826-1.122-1.07-1.122c-0.697,0-1.617,0.104-2.766,0.313
	c-1.512,0.261-2.443,0.409-2.793,0.443c-2.607,0.296-4.307,0.444-5.086,0.444c-0.715,0-1.072,0.191-1.072,0.573
	c0,1.967,0.084,4.928,0.25,8.885c0.166,3.958,0.248,6.928,0.248,8.91c0,1.896-0.09,4.745-0.262,8.547
	C256.552,373.479,256.466,376.327,256.466,378.224z"/>
<path fill="none" d="M157.286,414.519c0-0.939,0.081-2.349,0.248-4.227c0.166-1.879,0.248-3.289,0.248-4.229
	c0-0.417-0.252-0.628-0.757-0.628c-0.766,0-1.913,0.037-3.443,0.106c-1.531,0.07-2.68,0.104-3.445,0.104
	c-2.208,0-3.922-0.069-5.14-0.211c-0.817-0.102-1.287-0.154-1.409-0.154c-0.261,0-0.443,0.053-0.548,0.154
	c-0.072,0.159-0.106,0.333-0.106,0.524c0,0.922,0.089,2.141,0.261,3.652c0.245,2.019,0.385,3.244,0.42,3.68
	c-0.907,0.418-1.923,0.626-3.055,0.626c-1.67,0-3.119-0.644-4.345-1.931c-1.227-1.287-1.838-2.775-1.838-4.462
	s0.576-3.136,1.735-4.345c1.156-1.209,2.57-1.813,4.24-1.813c1.583,0,3.031,0.413,4.345,1.24c1.313,0.825,2.117,1.239,2.413,1.239
	c0.348,0,0.695-0.113,1.044-0.34c0.661-0.417,1.896-1.627,3.705-3.627c1.931-2.139,2.896-3.471,2.896-3.992
	c0-0.33-0.166-0.73-0.496-1.199c-1.374-1.967-3.557-3.566-6.549-4.803c-2.748-1.148-5.412-1.721-7.984-1.721
	c-5.41,0-9.989,1.873-13.738,5.623c-3.749,3.748-5.623,8.328-5.623,13.737c0,5.288,1.898,9.815,5.701,13.581
	c3.801,3.767,8.354,5.649,13.66,5.649c2.975,0,6.157-0.869,9.55-2.609c0.815,0.018,2.096,0.183,3.835,0.495
	c1.688,0.297,2.966,0.444,3.836,0.444c0.607,0,0.914-0.261,0.914-0.782c0-0.992-0.096-2.597-0.288-4.815
	C157.382,417.271,157.286,415.614,157.286,414.519z"/>
<path fill="none" d="M292.966,388.556c-0.154-0.383-0.275-0.573-0.363-0.573c0.104,0-0.164,0.043-0.807,0.13
	c-3.568,0.505-6.594,1.618-9.082,3.34c-3.061,2.123-4.594,4.802-4.594,8.037c0,1.861,0.385,3.505,1.15,4.931
	c0.018,0.036,0.73,1.062,2.139,3.079c0.766,1.113,1.148,2.209,1.148,3.287c0,1.219-0.576,2.385-1.725,3.497
	c-0.729,0.696-1.799,1.452-3.207,2.271c-1.146,0.678-1.723,1.078-1.723,1.199c0,0.036,0.879,1.671,2.637,4.906
	c1.861,3.427,2.861,5.271,2.998,5.531c0.193,0.384,0.393,0.575,0.602,0.575c0.123,0,0.297-0.027,0.521-0.079
	c2.594-0.766,5.168-1.888,7.725-3.366c3.045-1.773,5.115-3.574,6.209-5.401c1.045-1.722,1.564-3.704,1.564-5.949
	c0-1.826-0.668-3.883-2.006-6.17c-1.34-2.287-2.01-3.823-2.01-4.605c0-1.113,0.744-2.175,2.23-3.184s2.23-1.549,2.23-1.617
	c0-0.07-0.027-0.148-0.078-0.236C295.587,393.636,293.735,390.435,292.966,388.556z"/>
<path fill="none" d="M251.429,379.007c0.506,0,0.754-0.262,0.754-0.783c0-2.123-0.084-5.322-0.26-9.604
	c-0.172-4.278-0.262-7.488-0.262-9.627c0-1.774,0.084-4.44,0.25-7.998c0.166-3.557,0.248-6.223,0.248-7.997
	c0-0.418-0.225-0.626-0.68-0.626c-0.711,0-1.799,0.034-3.26,0.104c-1.461,0.069-2.557,0.104-3.289,0.104
	c-0.781,0-1.943-0.034-3.482-0.104c-1.539-0.07-2.691-0.104-3.457-0.104c-0.418,0-0.627,0.191-0.627,0.574
	c0,1.757,0.084,4.422,0.248,7.997c0.166,3.575,0.246,6.257,0.246,8.05c0,2.139-0.086,5.349-0.262,9.627
	c-0.172,4.281-0.26,7.48-0.26,9.604c0,0.504,0.287,0.756,0.863,0.756c0.713,0,1.787-0.034,3.221-0.104
	c1.436-0.07,2.512-0.104,3.225-0.104c0.764,0,1.896,0.038,3.404,0.116C249.554,378.967,250.681,379.007,251.429,379.007z"/>
<path fill="none" d="M273.946,414.649c-0.645,0-1.605,0.056-2.883,0.17c-1.277,0.112-2.238,0.169-2.885,0.169
	c-4.729,0-7.35-0.209-7.852-0.627c-0.209-0.19-0.316-0.495-0.316-0.913c0-0.869,0.795-1.305,2.375-1.305
	c2.438,0,4.586,0.113,6.447,0.34c1.67,0.208,2.424,0.313,2.27,0.313c0.539,0,0.809-0.191,0.809-0.574
	c0-0.992,0.113-2.652,0.34-4.982c0.018-0.314,0.131-1.088,0.338-2.323c0.158-1.009,0.236-1.757,0.236-2.244
	c0-0.481-0.221-0.718-0.633-0.739c-0.152,0.031-0.887,0.113-2.213,0.244c-1.338,0.139-2.738,0.209-4.199,0.209
	c-1.775,0-2.887-0.026-3.34-0.079c-1.617-0.211-2.43-0.729-2.43-1.565c0-0.609,0.682-0.975,2.039-1.096
	c0.225-0.018,1.111-0.026,2.66-0.026c0.957,0,2.383,0.096,4.279,0.288c1.895,0.191,3.314,0.286,4.254,0.286
	c0.365,0,0.547-0.174,0.547-0.521c0-0.384-0.131-1.927-0.391-4.632s-0.438-4.231-0.521-4.579c-0.191-0.888-0.773-1.331-1.748-1.331
	c-1.395,0-3.48,0.035-6.264,0.104s-4.861,0.104-6.236,0.104s-3.422-0.035-6.145-0.104c-2.721-0.069-4.762-0.104-6.117-0.104
	c-0.471,0-0.688,0.2-0.654,0.601l0.027,0.365c0.139,2.767,0.232,4.844,0.287,6.235c0.191,5.41,0.287,9.104,0.287,11.09
	c0,1.948-0.107,4.875-0.313,8.781c-0.211,3.904-0.318,6.831-0.318,8.779c0,0.505,0.289,0.757,0.865,0.757
	c1.375,0,3.441-0.034,6.211-0.104c2.762-0.069,4.842-0.104,6.234-0.104c5.061,0,9.125,0.208,12.186,0.626
	c0.314,0.052,0.557,0.078,0.73,0.078c0.559,0,0.881-0.202,0.967-0.601c0.434-2.331,0.719-4.097,0.861-5.297
	c0.033-0.191,0.207-1.035,0.521-2.531c0.223-1.061,0.338-1.904,0.338-2.531C274.599,414.857,274.382,414.649,273.946,414.649z"/>
<path fill="#0E4159" d="M320.001,325.307c-6.596,0.044-7.482,0.253-15.621,0.253c-9.105,0-9.105-1.096-18.217-1.096
	c-9.107,0-9.107,1.356-18.217,1.356c-9.107,0-9.107-2.813-18.217-2.813c-9.104,0-9.104,3.14-18.209,3.14
	c-9.102,0-9.102,0.509-18.208,0.509c-9.102,0-9.102-3.118-18.209-3.118c-9.105,0-9.105-1.048-18.214-1.048
	c-9.104,0-9.104,3.479-18.212,3.479c-9.105,0-9.105,0.73-18.213,0.73c-9.102,0-9.102-2.854-18.208-2.854
	c-7.897,0-8.95-0.046-15.038-0.056c-4.386,2.552-9.708,3.778-15.792,3.778c-1.851,0-3.651-0.193-5.404-0.526
	c-4.689,4.889-2.622,6.513-2.622,14.465c0,8.566,4.506,8.566,4.506,17.134c0,8.559-3.301,8.559-3.301,17.125
	c0,8.56,2.982,8.56,2.982,17.122c0,8.559,0.727,8.559,0.727,17.121c0,8.559-2.496,8.559-2.496,17.117
	c0,8.558-6.598,11.654-0.356,17.517c6.645,6.236,9.486,1.122,18.604,1.122c9.111,0,9.111-2.522,18.226-2.522
	c9.107,0,9.107,3.326,18.214,3.326c9.108,0,9.108-0.373,18.222-0.373c9.104,0,9.104-1.962,18.213-1.962
	c9.105,0,9.105-1.617,18.205-1.617c9.109,0,9.109,2.709,18.212,2.709c9.104,0,9.104-2.393,18.213-2.393
	c9.1,0,9.1,3.197,18.209,3.197c9.105,0,9.105-0.987,18.213-0.987c9.104,0,9.104,0.592,18.211,0.592c9.104,0,9.104,0.1,18.209,0.1
	s9.105-0.853,18.213-0.853c9.102,0,10.912,4.788,17.543-1.452c6.236-5.871,3.736-8.059,1.996-16.69
	c-1.695-8.398-2.291-8.298-2.291-16.865c0-8.559,1.135-8.559,1.135-17.121s-0.348-8.563-0.348-17.125
	c0-8.559-1.018-8.559-1.018-17.122c0-8.558,3.674-8.558,3.674-17.112c0-8.182,2.223-9.754-3.018-14.988
	c-2.475,0.673-5.057,1.063-7.74,1.063C327.886,327.568,323.688,326.81,320.001,325.307z M156.947,425.086
	c-0.87,0-2.147-0.147-3.836-0.444c-1.739-0.313-3.02-0.478-3.835-0.495c-3.393,1.74-6.575,2.609-9.55,2.609
	c-5.306,0-9.859-1.883-13.66-5.649c-3.803-3.766-5.701-8.293-5.701-13.581c0-5.409,1.874-9.989,5.623-13.737
	c3.749-3.75,8.328-5.623,13.738-5.623c2.572,0,5.236,0.572,7.984,1.721c2.992,1.236,5.175,2.836,6.549,4.803
	c0.33,0.469,0.496,0.869,0.496,1.199c0,0.521-0.966,1.854-2.896,3.992c-1.81,2-3.044,3.21-3.705,3.627
	c-0.349,0.227-0.696,0.34-1.044,0.34c-0.296,0-1.1-0.414-2.413-1.239c-1.313-0.827-2.762-1.24-4.345-1.24
	c-1.67,0-3.084,0.604-4.24,1.813c-1.159,1.209-1.735,2.658-1.735,4.345s0.611,3.175,1.838,4.462
	c1.226,1.287,2.675,1.931,4.345,1.931c1.132,0,2.147-0.208,3.055-0.626c-0.035-0.436-0.175-1.661-0.42-3.68
	c-0.172-1.512-0.261-2.73-0.261-3.652c0-0.191,0.034-0.365,0.106-0.524c0.104-0.102,0.287-0.154,0.548-0.154
	c0.122,0,0.592,0.053,1.409,0.154c1.218,0.142,2.932,0.211,5.14,0.211c0.766,0,1.914-0.034,3.445-0.104
	c1.53-0.069,2.678-0.106,3.443-0.106c0.505,0,0.757,0.211,0.757,0.628c0,0.939-0.082,2.35-0.248,4.229
	c-0.167,1.878-0.248,3.287-0.248,4.227c0,1.096,0.096,2.753,0.287,4.97c0.192,2.219,0.288,3.823,0.288,4.815
	C157.861,424.825,157.555,425.086,156.947,425.086z M157.025,378.979c-0.747,0-1.878-0.034-3.392-0.104
	c-1.514-0.07-2.646-0.104-3.393-0.104c-0.747,0-1.86,0.034-3.34,0.104c-1.48,0.069-2.594,0.104-3.339,0.104
	c-0.453,0-0.714-0.263-0.783-0.783c0,0,0-0.408,0-1.277c0-0.695-0.33-1.044-0.992-1.044c-4.053,0-6.428,0.108-7.123,0.325
	c-0.695,0.219-1.122,0.762-1.278,1.631c-0.142,0.766-0.418,1.148-0.835,1.148c-0.715,0-1.783-0.034-3.21-0.104
	c-1.426-0.07-2.496-0.104-3.209-0.104c-0.695,0-1.755,0.034-3.171,0.104c-1.417,0.069-2.474,0.104-3.17,0.104
	c-0.504,0-0.759-0.217-0.759-0.652c0-0.521,4.116-12.385,12.345-35.59c0.156-0.436,0.295-0.7,0.417-0.796s0.392-0.144,0.809-0.144
	c0.606,0,1.509,0.078,2.701,0.234c1.191,0.157,2.092,0.235,2.7,0.235c2.453,0,4.167-0.122,5.141-0.365
	c0.208-0.069,0.356-0.104,0.443-0.104c0.296,0,0.642,0.296,1.044,0.888c0.174,0.261,0.887,1.817,2.139,4.67
	c0.992,2.191,2.401,5.505,4.228,9.94c0.87,2.314,2.039,5.819,3.51,10.516c1.47,4.697,2.631,8.186,3.483,10.464
	c0.053,0.157,0.078,0.27,0.078,0.339C158.069,378.858,157.722,378.979,157.025,378.979z M256.739,352.222
	c-0.166-3.957-0.25-6.918-0.25-8.885c0-0.382,0.357-0.573,1.072-0.573c0.779,0,2.479-0.148,5.086-0.444
	c0.35-0.034,1.281-0.183,2.793-0.443c1.148-0.208,2.068-0.313,2.766-0.313c0.244,0,0.602,0.374,1.07,1.122
	c0.295,0.469,1.695,2.461,4.201,5.973c1.34,1.968,3.453,4.821,6.34,8.561c0.176-0.122,0.262-0.687,0.262-1.696
	c0-1.339-0.113-3.361-0.34-6.066s-0.34-4.728-0.34-6.066c0-0.679,0.172-1.018,0.521-1.018c0.697,0,1.74,0.025,3.133,0.078
	c1.391,0.053,2.434,0.078,3.131,0.078c0.748,0,1.869-0.025,3.367-0.078c1.494-0.053,2.617-0.078,3.365-0.078
	c0.311,0,0.471,0.235,0.471,0.704c0,1.983-0.098,4.971-0.289,8.963s-0.287,6.988-0.287,8.989l-0.051,17.352
	c0,0.4-0.307,0.6-0.914,0.6c-0.574,0-1.432-0.034-2.57-0.104c-1.139-0.07-1.996-0.104-2.57-0.104c-0.592,0-1.486,0.034-2.688,0.104
	c-1.199,0.069-2.104,0.104-2.715,0.104c-0.293,0-0.65-0.287-1.068-0.861c-6.314-8.732-9.732-13.098-10.256-13.098
	c-0.244,0-0.365,0.252-0.365,0.757c0,1.356,0.055,3.396,0.156,6.118c0.107,2.723,0.158,4.763,0.158,6.119
	c0,0.645-0.27,0.965-0.809,0.965c-0.627,0-1.572-0.034-2.834-0.104c-1.262-0.07-2.201-0.104-2.828-0.104
	c-0.678,0-1.703,0.034-3.066,0.104c-1.365,0.069-2.387,0.104-3.064,0.104c-0.578,0-0.861-0.252-0.861-0.756
	c0-1.896,0.086-4.745,0.26-8.545c0.172-3.802,0.262-6.65,0.262-8.547C256.987,359.149,256.905,356.18,256.739,352.222z
	 M164.971,347.056c3.767-3.766,8.337-5.649,13.712-5.649c5.41,0,9.817,1.696,13.229,5.088c0.415,0.4,0.626,0.757,0.626,1.07
	c0,0.365-0.822,2.031-2.466,4.997c-1.646,2.965-2.631,4.579-2.961,4.84c-0.262,0.209-0.505,0.313-0.731,0.313
	c-0.087,0-0.469-0.287-1.147-0.861c-0.817-0.678-1.609-1.199-2.374-1.564c-1.186-0.557-2.436-0.835-3.758-0.835
	c-1.671,0-3.084,0.604-4.24,1.813c-1.156,1.208-1.735,2.648-1.735,4.318c0,1.688,0.579,3.144,1.735,4.369
	c1.156,1.227,2.569,1.84,4.24,1.84c2.798,0,4.957-0.834,6.469-2.504c0.246-0.279,0.429-0.418,0.55-0.418
	c0.208,0,1.268,1.409,3.184,4.227c1.931,2.889,2.896,4.576,2.896,5.063c0,0.33-0.2,0.757-0.601,1.278
	c-1.374,1.774-3.322,3.164-5.845,4.175c-2.278,0.923-4.638,1.383-7.071,1.383c-5.375,0-9.945-1.865-13.712-5.596
	c-3.766-3.732-5.648-8.276-5.648-13.635C159.322,355.392,161.205,350.821,164.971,347.056z M197.259,425.738
	c-0.746,0-1.877-0.034-3.39-0.104c-1.514-0.069-2.645-0.104-3.393-0.104c-0.75,0-1.863,0.034-3.34,0.104
	c-1.479,0.07-2.592,0.104-3.339,0.104c-0.455,0-0.714-0.264-0.786-0.783c0,0,0-0.409,0-1.278c0-0.696-0.328-1.044-0.989-1.044
	c-4.053,0-6.428,0.109-7.123,0.326c-0.696,0.218-1.122,0.762-1.278,1.631c-0.14,0.766-0.418,1.148-0.835,1.148
	c-0.714,0-1.783-0.034-3.212-0.104c-1.424-0.069-2.494-0.104-3.208-0.104c-0.695,0-1.752,0.034-3.171,0.104
	c-1.416,0.07-2.473,0.104-3.169,0.104c-0.507,0-0.757-0.217-0.757-0.652c0-0.522,4.112-12.386,12.343-35.591
	c0.154-0.435,0.295-0.699,0.415-0.795c0.124-0.096,0.394-0.145,0.811-0.145c0.609,0,1.509,0.078,2.701,0.235
	c1.19,0.157,2.089,0.235,2.7,0.235c2.453,0,4.167-0.123,5.141-0.366c0.208-0.069,0.356-0.104,0.443-0.104
	c0.296,0,0.644,0.297,1.041,0.887c0.177,0.262,0.89,1.818,2.142,4.672c0.992,2.191,2.401,5.505,4.228,9.941
	c0.867,2.313,2.039,5.818,3.51,10.516c1.47,4.696,2.629,8.184,3.481,10.463c0.054,0.156,0.078,0.27,0.078,0.339
	C198.303,425.617,197.957,425.738,197.259,425.738z M199.973,378.224c0-2.123,0.093-5.322,0.275-9.604
	c0.183-4.278,0.274-7.488,0.274-9.627c0-0.853-0.035-2.775-0.106-5.767c-1.528,0.104-3.825,0.296-6.887,0.573
	c-0.278-0.121-0.418-0.199-0.418-0.234c0-0.191,0.148-1.078,0.445-2.661c0.327-1.723,0.51-2.73,0.547-3.027
	c0.052-1.6,0.225-3.521,0.52-5.766c0.055-0.14,0.186-0.209,0.394-0.209c0.069,0,0.209,0.018,0.418,0.052
	c3.479,0.384,7.758,0.574,12.837,0.574c1.549,0,4.454-0.199,8.714-0.6c2.125-0.209,3.264-0.313,3.42-0.313
	c0.521,0,0.781,0.131,0.781,0.392c0,0.626-0.043,1.57-0.131,2.831c-0.086,1.261-0.129,2.205-0.129,2.831
	c0,0.592,0.078,1.47,0.232,2.635c0.158,1.166,0.238,2.045,0.238,2.635c0,0.34-0.188,0.506-0.551,0.514
	c-0.232-0.03-2.408-0.156-6.547-0.383c-0.07,3.063-0.105,5.037-0.105,5.924c0,2.139,0.092,5.349,0.276,9.627
	c0.183,4.281,0.269,7.48,0.269,9.604c0,0.521-0.259,0.783-0.782,0.783c-0.727,0-1.84-0.04-3.338-0.119
	c-1.495-0.078-2.618-0.116-3.365-0.116c-0.715,0-1.783,0.034-3.209,0.104c-1.426,0.069-2.496,0.104-3.209,0.104
	C200.261,378.979,199.973,378.728,199.973,378.224z M240.55,425.738c-0.68,0-1.703-0.034-3.066-0.104
	c-1.369-0.069-2.396-0.104-3.094-0.104c-0.678,0-1.707,0.034-3.092,0.104c-1.383,0.07-2.412,0.104-3.09,0.104
	c-0.541,0-0.814-0.322-0.814-0.966c0-1.165,0.057-2.927,0.16-5.284c0.105-2.356,0.158-4.118,0.158-5.282
	c0-0.506-0.053-0.758-0.158-0.758c-0.33,0-1.439,2.191-3.326,6.575c-1.887,4.385-3.006,6.576-3.354,6.576
	c-0.486,0-1.635-2.191-3.443-6.576c-1.811-4.384-2.889-6.575-3.236-6.575c-0.103,0-0.158,0.252-0.158,0.758
	c0,1.164,0.056,2.926,0.158,5.282c0.105,2.357,0.157,4.119,0.157,5.284c0,0.644-0.26,0.966-0.784,0.966
	c-0.695,0-1.729-0.034-3.104-0.104c-1.374-0.069-2.409-0.104-3.106-0.104c-0.677,0-1.698,0.034-3.064,0.104
	c-1.365,0.07-2.388,0.104-3.065,0.104c-0.574,0-0.861-0.252-0.861-0.757c0-1.896,0.084-4.744,0.261-8.545
	c0.174-3.801,0.261-6.649,0.261-8.546c0-2.018-0.082-5.049-0.25-9.093c-0.163-4.045-0.246-7.076-0.246-9.094
	c0-0.383,0.392-0.574,1.173-0.574c0.576,0,1.437-0.025,2.586-0.078c1.146-0.053,2.008-0.078,2.583-0.078
	c0.643,0,1.623-0.074,2.949-0.223c1.32-0.146,2.304-0.221,2.946-0.221c0.157,0,0.471,0.382,0.938,1.147
	c1.898,3.062,3.924,6.603,6.08,10.62c0.766,1.426,1.209,2.139,1.33,2.139c0.262,0,0.68-0.66,1.254-1.982
	c0.609-1.427,1.531-3.191,2.766-5.297c1.773-2.975,2.791-4.696,3.051-5.166c0.402-0.748,0.758-1.122,1.072-1.122
	c0.645,0,1.625,0.034,2.949,0.104c1.322,0.069,2.313,0.104,2.973,0.104c0.643,0,1.594-0.056,2.855-0.169
	c1.26-0.112,2.217-0.171,2.859-0.171c0.418,0,0.625,0.201,0.625,0.602c0,2.053-0.086,5.141-0.26,9.262
	c-0.174,4.124-0.262,7.22-0.262,9.29c0,1.896,0.092,4.745,0.275,8.546c0.182,3.801,0.275,6.649,0.275,8.545
	C241.411,425.486,241.122,425.738,240.55,425.738z M241.421,378.876c-1.434,0.069-2.508,0.104-3.221,0.104
	c-0.576,0-0.863-0.252-0.863-0.756c0-2.123,0.088-5.322,0.26-9.604c0.176-4.278,0.262-7.488,0.262-9.627
	c0-1.793-0.08-4.475-0.246-8.05c-0.164-3.575-0.248-6.24-0.248-7.997c0-0.383,0.209-0.574,0.627-0.574
	c0.766,0,1.918,0.034,3.457,0.104c1.539,0.069,2.701,0.104,3.482,0.104c0.732,0,1.828-0.034,3.289-0.104
	c1.461-0.07,2.549-0.104,3.26-0.104c0.455,0,0.68,0.208,0.68,0.626c0,1.774-0.082,4.44-0.248,7.997
	c-0.166,3.558-0.25,6.224-0.25,7.998c0,2.139,0.09,5.349,0.262,9.627c0.176,4.281,0.26,7.48,0.26,9.604
	c0,0.521-0.248,0.783-0.754,0.783c-0.748,0-1.875-0.04-3.379-0.119c-1.508-0.078-2.641-0.116-3.404-0.116
	C243.933,378.771,242.856,378.806,241.421,378.876z M274.261,417.806c-0.314,1.496-0.488,2.34-0.521,2.531
	c-0.143,1.2-0.428,2.966-0.861,5.297c-0.086,0.398-0.408,0.601-0.967,0.601c-0.174,0-0.416-0.026-0.73-0.078
	c-3.061-0.418-7.125-0.626-12.186-0.626c-1.393,0-3.473,0.034-6.234,0.104c-2.77,0.07-4.836,0.104-6.211,0.104
	c-0.576,0-0.865-0.252-0.865-0.757c0-1.948,0.107-4.875,0.318-8.779c0.205-3.906,0.313-6.833,0.313-8.781
	c0-1.985-0.096-5.68-0.287-11.09c-0.055-1.392-0.148-3.469-0.287-6.235l-0.027-0.365c-0.033-0.4,0.184-0.601,0.654-0.601
	c1.355,0,3.396,0.035,6.117,0.104c2.723,0.069,4.77,0.104,6.145,0.104s3.453-0.035,6.236-0.104s4.869-0.104,6.264-0.104
	c0.975,0,1.557,0.443,1.748,1.331c0.084,0.348,0.262,1.874,0.521,4.579s0.391,4.248,0.391,4.632c0,0.348-0.182,0.521-0.547,0.521
	c-0.939,0-2.359-0.095-4.254-0.286c-1.896-0.192-3.322-0.288-4.279-0.288c-1.549,0-2.436,0.009-2.66,0.026
	c-1.357,0.121-2.039,0.486-2.039,1.096c0,0.836,0.813,1.354,2.43,1.565c0.453,0.053,1.564,0.079,3.34,0.079
	c1.461,0,2.861-0.07,4.199-0.209c1.326-0.131,2.061-0.213,2.213-0.244c0.412,0.021,0.633,0.258,0.633,0.739
	c0,0.487-0.078,1.235-0.236,2.244c-0.207,1.235-0.32,2.009-0.338,2.323c-0.227,2.33-0.34,3.99-0.34,4.982
	c0,0.383-0.27,0.574-0.809,0.574c0.154,0-0.6-0.104-2.27-0.313c-1.861-0.227-4.01-0.34-6.447-0.34c-1.58,0-2.375,0.436-2.375,1.305
	c0,0.418,0.107,0.723,0.316,0.913c0.502,0.418,3.123,0.627,7.852,0.627c0.646,0,1.607-0.057,2.885-0.169
	c1.277-0.114,2.238-0.17,2.883-0.17c0.436,0,0.652,0.208,0.652,0.625C274.599,415.901,274.483,416.745,274.261,417.806z
	 M296.374,400.011c-1.486,1.009-2.23,2.07-2.23,3.184c0,0.782,0.67,2.318,2.01,4.605c1.338,2.287,2.006,4.344,2.006,6.17
	c0,2.245-0.52,4.228-1.564,5.949c-1.094,1.827-3.164,3.628-6.209,5.401c-2.557,1.479-5.131,2.601-7.725,3.366
	c-0.225,0.052-0.398,0.079-0.521,0.079c-0.209,0-0.408-0.191-0.602-0.575c-0.137-0.261-1.137-2.104-2.998-5.531
	c-1.758-3.235-2.637-4.87-2.637-4.906c0-0.121,0.576-0.521,1.723-1.199c1.408-0.818,2.479-1.574,3.207-2.271
	c1.148-1.112,1.725-2.278,1.725-3.497c0-1.078-0.383-2.174-1.148-3.287c-1.408-2.018-2.121-3.043-2.139-3.079
	c-0.766-1.426-1.15-3.069-1.15-4.931c0-3.235,1.533-5.914,4.594-8.037c2.488-1.722,5.514-2.835,9.082-3.34
	c0.643-0.087,0.91-0.13,0.807-0.13c0.088,0,0.209,0.19,0.363,0.573c0.77,1.879,2.621,5.08,5.561,9.602
	c0.051,0.088,0.078,0.166,0.078,0.236C298.604,398.462,297.86,399.002,296.374,400.011z"/>
<path fill="#F15E57" d="M120.248,304.442c0.46-2.07,0.726-4.215,0.726-6.42c0-11.076-6.136-20.743-15.182-25.792
	c-0.848-0.475-1.729-0.892-2.625-1.279c1.035,0.452,2.042,0.955,3.013,1.519c1.709,0.982,3.305,2.139,4.774,3.439
	c-3.892-1.896-8.24-2.979-12.853-2.979c-16.291,0-29.543,13.255-29.543,29.545c0,8.774,3.872,16.647,9.967,22.064
	c2.344,1.154,4.857,2.006,7.497,2.502c1.753,0.333,3.554,0.526,5.404,0.526c6.084,0,11.406-1.227,15.792-3.778
	c4.055-2.364,7.313-5.858,9.606-10.616c-9.039,2.748-17.04-5.393-17.04-7.479C103.75,308.269,112.785,307.912,120.248,304.442z
	 M103.677,293.438c-0.431-5.644,0.259-20.703,12.32-7.714c0,0-2.271,0.034-7.226,2.684
	C105.962,289.908,103.707,293.078,103.677,293.438z"/>
<path opacity="0.2" fill="#FFFFFF" d="M91.422,268.478c-8.018,0-15.299,3.211-20.629,8.414c5.33-5.203,12.611-8.414,20.631-8.414
	H91.422z"/>
<path fill="#F05E58" d="M68.559,302.476c0-16.29,13.252-29.545,29.543-29.545c4.612,0,8.961,1.082,12.853,2.979
	c-1.47-1.301-3.065-2.457-4.774-3.439c-0.971-0.563-1.978-1.066-3.013-1.519c-0.043-0.021-0.087-0.047-0.132-0.065
	c-1.071-0.462-2.175-0.864-3.305-1.202c-0.011-0.002-0.024-0.006-0.035-0.01c-0.762-0.227-1.533-0.421-2.317-0.583
	c-0.026-0.005-0.053-0.014-0.081-0.018c-0.561-0.115-1.128-0.209-1.702-0.292c-0.076-0.011-0.152-0.027-0.231-0.039
	c-0.556-0.073-1.119-0.126-1.685-0.169c-0.092-0.009-0.181-0.021-0.271-0.028c-0.654-0.046-1.316-0.067-1.983-0.067
	c-8.02,0-15.301,3.211-20.631,8.414c-0.761,0.744-1.483,1.527-2.161,2.349c-1.808,2.189-3.308,4.643-4.43,7.293
	c-0.373,0.883-0.706,1.792-0.993,2.714c-0.576,1.848-0.976,3.775-1.179,5.76c-0.1,0.991-0.152,1.998-0.152,3.016
	c0,0.909,0.057,1.806,0.137,2.692c0.024,0.257,0.055,0.514,0.086,0.77c0.077,0.677,0.183,1.347,0.307,2.007
	c0.043,0.227,0.075,0.455,0.123,0.679c0.177,0.819,0.383,1.629,0.624,2.42c0.081,0.264,0.177,0.518,0.264,0.778
	c0.18,0.542,0.376,1.076,0.587,1.605c0.132,0.325,0.268,0.654,0.411,0.976c0.208,0.477,0.439,0.939,0.674,1.4
	c0.283,0.555,0.583,1.099,0.897,1.631c0.211,0.356,0.42,0.713,0.646,1.06c0.268,0.413,0.55,0.816,0.837,1.213
	c0.163,0.224,0.33,0.443,0.498,0.665c1.124,1.461,2.375,2.823,3.746,4.054c0.046,0.041,0.089,0.082,0.138,0.124
	c0.919,0.815,1.904,1.557,2.923,2.254c0.175,0.123,0.352,0.242,0.53,0.359c0.577,0.381,1.168,0.739,1.771,1.081
	c0.016,0.009,0.032,0.017,0.051,0.025c0.456,0.257,0.926,0.492,1.397,0.725C72.431,319.123,68.559,311.25,68.559,302.476z"/>
<path opacity="0.2" fill="#FFFFFF" d="M68.559,302.476c0-16.29,13.252-29.545,29.543-29.545c4.612,0,8.961,1.082,12.853,2.979
	c-1.47-1.301-3.065-2.457-4.774-3.439c-0.971-0.563-1.978-1.066-3.013-1.519c-0.043-0.021-0.087-0.047-0.132-0.065
	c-1.071-0.462-2.175-0.864-3.305-1.202c-0.011-0.002-0.024-0.006-0.035-0.01c-0.762-0.227-1.533-0.421-2.317-0.583
	c-0.026-0.005-0.053-0.014-0.081-0.018c-0.561-0.115-1.128-0.209-1.702-0.292c-0.076-0.011-0.152-0.027-0.231-0.039
	c-0.556-0.073-1.119-0.126-1.685-0.169c-0.092-0.009-0.181-0.021-0.271-0.028c-0.654-0.046-1.316-0.067-1.983-0.067
	c-8.02,0-15.301,3.211-20.631,8.414c-0.761,0.744-1.483,1.527-2.161,2.349c-1.808,2.189-3.308,4.643-4.43,7.293
	c-0.373,0.883-0.706,1.792-0.993,2.714c-0.576,1.848-0.976,3.775-1.179,5.76c-0.1,0.991-0.152,1.998-0.152,3.016
	c0,0.909,0.057,1.806,0.137,2.692c0.024,0.257,0.055,0.514,0.086,0.77c0.077,0.677,0.183,1.347,0.307,2.007
	c0.043,0.227,0.075,0.455,0.123,0.679c0.177,0.819,0.383,1.629,0.624,2.42c0.081,0.264,0.177,0.518,0.264,0.778
	c0.18,0.542,0.376,1.076,0.587,1.605c0.132,0.325,0.268,0.654,0.411,0.976c0.208,0.477,0.439,0.939,0.674,1.4
	c0.283,0.555,0.583,1.099,0.897,1.631c0.211,0.356,0.42,0.713,0.646,1.06c0.268,0.413,0.55,0.816,0.837,1.213
	c0.163,0.224,0.33,0.443,0.498,0.665c1.124,1.461,2.375,2.823,3.746,4.054c0.046,0.041,0.089,0.082,0.138,0.124
	c0.919,0.815,1.904,1.557,2.923,2.254c0.175,0.123,0.352,0.242,0.53,0.359c0.577,0.381,1.168,0.739,1.771,1.081
	c0.016,0.009,0.032,0.017,0.051,0.025c0.456,0.257,0.926,0.492,1.397,0.725C72.431,319.123,68.559,311.25,68.559,302.476z"/>
<path fill="#F5B43D" d="M187.982,94.834c0,6.697,2.253,12.87,6.032,17.824c1.028,0.797,2.096,1.545,3.227,2.202
	c4.345,2.521,9.375,3.987,14.756,3.987c5.373,0,10.406-1.466,14.754-3.987c8.824-5.118,14.791-14.647,14.791-25.559
	c0-6.735-2.291-12.933-6.102-17.907c-4.975-3.814-11.176-6.106-17.912-6.106C201.237,65.288,187.982,78.544,187.982,94.834z
	 M198.875,92.164c1.85-10.907,10.387-15.499,15.901-1.492c0,0-2.414-1.844-9.205-0.634
	C201.838,90.693,199.074,91.733,198.875,92.164c-0.021,0.069-0.056,0.135-0.068,0.204C198.819,92.299,198.854,92.233,198.875,92.164
	z M231.392,94.643c0.025-0.108,0.078-0.204,0.1-0.313C231.491,94.33,231.483,94.447,231.392,94.643
	c-2.281,18.096-22.381,21.966-32.711,5.301c0,0,9.606,3.897,20.039,2.04C224.456,100.966,231.083,95.308,231.392,94.643z
	 M230.739,88.445c0,0-2.414-1.848-9.205-0.644c-3.729,0.666-4.594,1.696-4.795,2.131c-0.02,0.069-0.051,0.131-0.064,0.205
	c0.014-0.074,0.045-0.136,0.064-0.205C216.874,79.121,226.374,73.655,230.739,88.445z"/>
<path fill="#F4B43D" d="M182.69,92.992c0.126,1.007,0.309,1.998,0.537,2.973c0.041,0.179,0.082,0.353,0.128,0.53
	c0.244,0.968,0.53,1.923,0.867,2.849c0.05,0.132,0.105,0.263,0.155,0.396c0.739,1.942,1.676,3.788,2.789,5.51
	c0.071,0.108,0.14,0.223,0.211,0.331c0.546,0.817,1.134,1.604,1.755,2.363c0.104,0.126,0.209,0.252,0.315,0.376
	c0.633,0.748,1.301,1.47,2.005,2.152c0.092,0.088,0.187,0.173,0.281,0.262c0.723,0.683,1.493,1.313,2.28,1.925
	c-3.779-4.954-6.032-11.127-6.032-17.824c0-16.29,13.255-29.546,29.546-29.546c6.736,0,12.938,2.292,17.912,6.106
	c-2.662-3.478-6.08-6.346-9.996-8.367c-0.18-0.092-0.365-0.174-0.545-0.264c-0.754-0.367-1.521-0.704-2.311-1.011
	c-0.285-0.108-0.576-0.216-0.867-0.318c-0.711-0.248-1.432-0.465-2.162-0.66c-0.34-0.091-0.678-0.186-1.018-0.261
	c-0.744-0.17-1.5-0.298-2.264-0.409c-0.328-0.048-0.648-0.113-0.977-0.152c-1.085-0.121-2.186-0.195-3.305-0.195
	c-16.291,0-29.547,13.255-29.547,29.545c0,1.093,0.077,2.169,0.192,3.231C182.66,92.686,182.671,92.84,182.69,92.992z"/>
<path opacity="0.2" fill="#FFFFFF" d="M182.69,92.992c0.126,1.007,0.309,1.998,0.537,2.973c0.041,0.179,0.082,0.353,0.128,0.53
	c0.244,0.968,0.53,1.923,0.867,2.849c0.05,0.132,0.105,0.263,0.155,0.396c0.739,1.942,1.676,3.788,2.789,5.51
	c0.071,0.108,0.14,0.223,0.211,0.331c0.546,0.817,1.134,1.604,1.755,2.363c0.104,0.126,0.209,0.252,0.315,0.376
	c0.633,0.748,1.301,1.47,2.005,2.152c0.092,0.088,0.187,0.173,0.281,0.262c0.723,0.683,1.493,1.313,2.28,1.925
	c-3.779-4.954-6.032-11.127-6.032-17.824c0-16.29,13.255-29.546,29.546-29.546c6.736,0,12.938,2.292,17.912,6.106
	c-2.662-3.478-6.08-6.346-9.996-8.367c-0.18-0.092-0.365-0.174-0.545-0.264c-0.754-0.367-1.521-0.704-2.311-1.011
	c-0.285-0.108-0.576-0.216-0.867-0.318c-0.711-0.248-1.432-0.465-2.162-0.66c-0.34-0.091-0.678-0.186-1.018-0.261
	c-0.744-0.17-1.5-0.298-2.264-0.409c-0.328-0.048-0.648-0.113-0.977-0.152c-1.085-0.121-2.186-0.195-3.305-0.195
	c-16.291,0-29.547,13.255-29.547,29.545c0,1.093,0.077,2.169,0.192,3.231C182.66,92.686,182.671,92.84,182.69,92.992z"/>
<path fill="#0E4159" d="M212.13,267.238c-30.816,0.104-59.692-5.445-84.65-15.083c-6.498-2.504-12.723-5.294-18.645-8.335
	c-2.732,4.769-5.465,9.539-8.196,14.307c3.829,2.31,7.965,4.727,11.803,7.115c0.927,0.617,1.927,1.187,2.74,1.878l1.273,1.001
	c0.351,0.256,1.088,0.896,1.088,0.896c0.629,0.548,1.237,1.117,1.824,1.709c2.363,2.349,4.43,5.001,6.119,7.867
	c1.693,2.87,3.013,5.944,3.92,9.146c0.227,0.817,0.413,1.565,0.607,2.457l0.484,2.944l0.268,3.266l0.306,13.547
	c53.839-0.318,107.553-0.631,160.953-0.944l0.211-12.024c-0.004-1.018,0.117-1.952,0.184-2.918l0.123-1.427l0.203-1.265l0.205-1.262
	c0.041-0.257,0.063-0.344,0.082-0.431l0.063-0.287c0.088-0.382,0.154-0.77,0.262-1.147c0.73-3.058,1.861-6.01,3.297-8.811
	c2.877-5.606,7.137-10.524,12.256-14.229c1.633-1.322,2.703-2.092,3.299-2.661c0.775-0.648,0.957-0.988,0.85-1.18
	c-0.223-0.382-1.627-0.169-1.875-0.608c-6.984,3.954-12.689,10.007-16.324,16.643c-1.828,3.314-3.174,6.768-4.084,10.177
	c-0.238,0.948-0.389,1.365-0.709,3.235c-0.158,0.744-0.264,1.578-0.344,2.452c-0.096,0.849-0.193,1.692-0.219,2.571
	c-0.164,3.422-0.324,6.753-0.479,9.984c-0.289,0.057-0.5,0.174-0.846,0.174l-1.053-0.026c-0.697-0.021-1.391-0.043-2.072-0.06
	c-1.357-0.053-2.688-0.097-3.998-0.145c-4.295,0-2.295-0.505-0.635-1.135c1.709-0.635,2.895-1.392-1.043-1.9
	c-5.953,0-17.859,0-23.82,0c-5.297-1.514,5.307-3.031,0-4.545c-0.203-0.061-0.477-0.108-0.725-0.161h26.328
	c0.002-19.029,10.471-35.65,25.951-44.436l-2.959-5.124c-2.449,1.08-4.928,2.131-7.461,3.128
	C271.765,261.394,242.927,267.138,212.13,267.238z"/>
<path fill="#0F425A" d="M313.153,244.207c4.047,5.163,5.945,6.729,1.971-1C314.474,243.546,313.812,243.874,313.153,244.207z"/>
<path fill="#0E4159" d="M312.991,239.197c-10.637-18.684-21.309-37.427-32.006-56.218c-12.779-22.235-25.59-44.531-38.428-66.871
	c-3.984,2.209-8.229,4.64-12.305,6.836c-1.016,0.518-2.031,1.104-3.059,1.479l-1.535,0.632c-0.27,0.104-0.475,0.208-0.818,0.316
	l-0.588,0.209c-0.768,0.262-1.551,0.491-2.336,0.7c-3.141,0.833-6.379,1.257-9.645,1.266c-3.266,0-6.507-0.418-9.656-1.248
	c-0.787-0.205-1.569-0.439-2.341-0.7l-0.554-0.191c-0.336-0.113-0.571-0.214-0.828-0.322l-1.537-0.63
	c-1.028-0.375-2.044-0.952-3.064-1.475c-4.076-2.195-8.327-4.637-12.315-6.845c-24.349,42.506-48.752,85.108-73.142,127.686
	c5.922,3.041,12.146,5.831,18.645,8.335c24.958,9.638,53.834,15.188,84.65,15.083c30.797-0.101,59.635-5.845,84.563-15.647
	c2.533-0.997,5.012-2.048,7.461-3.128l-15.063-26.083c0.045-0.026,0.1-0.057,0.139-0.081c0.438-0.249,3.088,4.335,5.742,8.935
	c0.875-0.503,4.4,3.579,2.188-1.265c-2.654-4.597-5.305-9.186-7.955-13.777c11.045,18.117,18.535,26.041,19.848,25.28
	c-3.092-4.345-1.777-5.102-4.865-9.438c3.221,4.525,6.492,9.017,8.967,12.173c0.658-0.333,1.32-0.661,1.971-1
	C314.54,242.071,313.841,240.753,312.991,239.197z M241.269,243.646h-58.548c-1.779,0-2.508-1.262-1.618-2.801l29.275-50.702
	c0.891-1.54,2.348-1.54,3.236,0l29.27,50.702C243.774,242.384,243.046,243.646,241.269,243.646z"/>
<linearGradient id="SVGID_1_" gradientUnits="userSpaceOnUse" x1="211.5786" y1="-27.4165" x2="211.5786" y2="131.4109" gradientTransform="matrix(1 -6.000000e-004 -6.000000e-004 0.8252 0.461 161.4734)">
	<stop  offset="0" style="stop-color:#FFFFFF"/>
	<stop  offset="1" style="stop-color:#FFFFFF;stop-opacity:0.3"/>
</linearGradient>
<path opacity="0.5" fill="url(#SVGID_1_)" d="M312.991,239.197c-10.637-18.684-21.309-37.427-32.006-56.218
	c-12.779-22.235-25.59-44.531-38.428-66.871c-3.984,2.209-8.229,4.64-12.305,6.836c-1.016,0.518-2.031,1.104-3.059,1.479
	l-1.535,0.632c-0.27,0.104-0.475,0.208-0.818,0.316l-0.588,0.209c-0.768,0.262-1.551,0.491-2.336,0.7
	c-3.141,0.833-6.379,1.257-9.645,1.266c-3.266,0-6.507-0.418-9.656-1.248c-0.787-0.205-1.569-0.439-2.341-0.7l-0.554-0.191
	c-0.336-0.113-0.571-0.214-0.828-0.322l-1.537-0.63c-1.028-0.375-2.044-0.952-3.064-1.475c-4.076-2.195-8.327-4.637-12.315-6.845
	c-24.349,42.506-48.752,85.108-73.142,127.686c5.922,3.041,12.146,5.831,18.645,8.335c24.958,9.638,53.834,15.188,84.65,15.083
	c30.797-0.101,59.635-5.845,84.563-15.647c2.533-0.997,5.012-2.048,7.461-3.128l-15.063-26.083c0.045-0.026,0.1-0.057,0.139-0.081
	c0.438-0.249,3.088,4.335,5.742,8.935c0.875-0.503,4.4,3.579,2.188-1.265c-2.654-4.597-5.305-9.186-7.955-13.777
	c11.045,18.117,18.535,26.041,19.848,25.28c-3.092-4.345-1.777-5.102-4.865-9.438c3.221,4.525,6.492,9.017,8.967,12.173
	c0.658-0.333,1.32-0.661,1.971-1C314.54,242.071,313.841,240.753,312.991,239.197z M241.269,243.646h-58.548
	c-1.779,0-2.508-1.262-1.618-2.801l29.275-50.702c0.891-1.54,2.348-1.54,3.236,0l29.27,50.702
	C243.774,242.384,243.046,243.646,241.269,243.646z"/>
<g>
	<polygon fill="#62873D" points="309.196,285.896 309.202,285.896 309.196,285.896 	"/>
	<path fill="#62873D" d="M319.288,324.405c-0.813-0.745-1.555-1.477-2.244-2.217c-2.148-2.307-3.742-4.74-4.838-8.299
		c-1.053,0.161-2.135-0.026-3.199-0.312c-0.637-0.092-1.277-0.22-1.926-0.417c0.387,0.807,0.814,1.564,1.258,2.301
		c0.383,0.637,0.822,1.195,1.246,1.779c1.951,2.697,4.336,4.813,7.072,6.426c1.201,0.609,2.447,1.188,3.695,1.788
		c0.053,0.022,0.107,0.035,0.16,0.058C320.087,325.134,319.681,324.768,319.288,324.405z"/>
	<path opacity="0.2" fill="#FFFFFF" d="M319.288,324.405c-0.813-0.745-1.555-1.477-2.244-2.217c-2.148-2.307-3.742-4.74-4.838-8.299
		c-1.053,0.161-2.135-0.026-3.199-0.312c-0.637-0.092-1.277-0.22-1.926-0.417c0.387,0.807,0.814,1.564,1.258,2.301
		c0.383,0.637,0.822,1.195,1.246,1.779c1.951,2.697,4.336,4.813,7.072,6.426c1.201,0.609,2.447,1.188,3.695,1.788
		c0.053,0.022,0.107,0.035,0.16,0.058C320.087,325.134,319.681,324.768,319.288,324.405z"/>
	<path fill="#62873D" d="M352.011,275.803c-0.023-0.021-0.049-0.037-0.07-0.057c-3.873-1.869-8.188-2.939-12.764-2.939
		c-0.271,0-0.531,0.042-0.803,0.051c-7.619,0.205-14.492,3.32-19.627,8.258c-0.068,0.094-0.141,0.177-0.211,0.272
		c-0.016-0.01-0.029-0.014-0.045-0.024c-0.109,0.106-0.225,0.207-0.328,0.313c2.219,2.524,2.33,8.572,2.088,11.716
		c-0.029-0.361-2.287-3.537-5.102-5.04c-0.533-0.283-1.02-0.523-1.488-0.751c-0.018-0.008-0.029-0.015-0.047-0.021
		c-2.543,4.364-4.035,9.418-4.035,14.823c0,0.447,0.037,0.941,0.084,1.445c0.086,0.924,0.219,1.873,0.336,2.7
		c5.697,1.296,11.266,0.993,14.15-0.88c0,1.941-6.908,9.096-15.143,7.909c1.064,0.285,2.146,0.473,3.199,0.312
		c1.096,3.559,2.689,5.992,4.838,8.299l2.244,2.217c0.393,0.362,0.799,0.729,1.225,1.107c3.559,1.358,7.561,2.068,12.01,2.068
		c2.688,0,5.277-0.392,7.754-1.064c12.568-3.42,21.846-14.898,21.846-28.532C362.122,289.137,358.185,281.227,352.011,275.803z"/>
	<path opacity="0.2" fill="#FFFFFF" d="M309.202,285.896c0.934,0.234,2.385,0.71,4.412,1.684c0.041-0.07,0.074-0.144,0.117-0.214
		C309.849,285.787,309.216,285.892,309.202,285.896z"/>
	<path fill="#62873D" d="M349.792,273.998c-0.004-0.004-0.008-0.009-0.012-0.011c-0.736-0.529-1.506-1.021-2.293-1.48
		c-0.586-0.346-1.18-0.683-1.791-0.986c-0.068-0.035-0.139-0.066-0.205-0.101c-0.893-0.439-1.813-0.828-2.752-1.176
		c-0.268-0.1-0.531-0.205-0.805-0.297c-0.414-0.14-0.836-0.266-1.258-0.392c-0.514-0.148-1.035-0.279-1.559-0.4
		c-0.334-0.079-0.668-0.155-1.006-0.22c-0.721-0.141-1.453-0.252-2.191-0.339c-0.25-0.025-0.498-0.052-0.748-0.073
		c-0.873-0.079-1.756-0.136-2.65-0.136c-0.902,0-1.791,0.057-2.672,0.136c-0.219,0.021-0.439,0.039-0.656,0.064
		c-0.836,0.094-1.664,0.219-2.479,0.38c-0.205,0.041-0.404,0.096-0.609,0.14c-0.615,0.139-1.227,0.296-1.828,0.472
		c-0.301,0.089-0.604,0.172-0.9,0.271c-0.68,0.221-1.352,0.467-2.008,0.737c-0.361,0.148-0.713,0.312-1.068,0.476
		c-0.369,0.165-0.732,0.344-1.096,0.526c-0.549,0.278-1.088,0.575-1.619,0.887c-0.404,0.237-0.809,0.473-1.199,0.729
		c-0.359,0.233-0.703,0.481-1.049,0.728c-0.332,0.239-0.658,0.483-0.98,0.734c-0.313,0.241-0.625,0.481-0.928,0.738
		c-0.541,0.457-1.066,0.937-1.574,1.434c-0.248,0.239-0.482,0.494-0.721,0.744c-0.348,0.361-0.686,0.734-1.016,1.115
		c-0.213,0.249-0.43,0.492-0.637,0.75c-0.475,0.588-0.932,1.193-1.361,1.82c-0.148,0.214-0.285,0.438-0.424,0.658
		c-0.328,0.501-0.641,1.013-0.936,1.533c-0.135,0.239-0.271,0.477-0.398,0.718c-0.379,0.713-0.734,1.439-1.055,2.182
		c-0.066,0.159-0.125,0.324-0.191,0.485c-0.26,0.643-0.502,1.298-0.719,1.96c-0.076,0.23-0.15,0.461-0.219,0.695
		c-0.244,0.813-0.465,1.633-0.639,2.473c-0.018,0.088-0.029,0.178-0.047,0.268c-0.154,0.777-0.271,1.566-0.361,2.363
		c-0.027,0.23-0.053,0.459-0.072,0.689c-0.08,0.887-0.137,1.782-0.137,2.69c0,1.094,0.066,2.17,0.189,3.23
		c0.012,0.124,0.043,0.246,0.057,0.368c0.109,0.84,0.25,1.668,0.424,2.487c0.023,0.114,0.033,0.231,0.059,0.344
		c2.043,0.95,4.203,1.647,6.346,2.135c-0.117-0.827-0.25-1.776-0.336-2.7c-0.047-0.504-0.084-0.998-0.084-1.445
		c0-5.405,1.492-10.459,4.035-14.823c-2.027-0.974-3.479-1.449-4.412-1.684c-0.004,0-0.004,0-0.006,0
		c-0.855-0.216-1.285-0.231-1.285-0.231c4.402-4.741,7.289-5.742,9.162-4.837c0.41,0.197,0.77,0.487,1.09,0.849
		c0.104-0.106,0.219-0.207,0.328-0.313c0.084-0.085,0.172-0.165,0.256-0.248c5.135-4.938,12.008-8.053,19.627-8.258
		c0.271-0.009,0.531-0.051,0.803-0.051c4.576,0,8.891,1.07,12.764,2.939C351.247,275.136,350.542,274.539,349.792,273.998z"/>
	<path opacity="0.2" fill="#FFFFFF" d="M349.792,273.998c-0.004-0.004-0.008-0.009-0.012-0.011c-0.736-0.529-1.506-1.021-2.293-1.48
		c-0.586-0.346-1.18-0.683-1.791-0.986c-0.068-0.035-0.139-0.066-0.205-0.101c-0.893-0.439-1.813-0.828-2.752-1.176
		c-0.268-0.1-0.531-0.205-0.805-0.297c-0.414-0.14-0.836-0.266-1.258-0.392c-0.514-0.148-1.035-0.279-1.559-0.4
		c-0.334-0.079-0.668-0.155-1.006-0.22c-0.721-0.141-1.453-0.252-2.191-0.339c-0.25-0.025-0.498-0.052-0.748-0.073
		c-0.873-0.079-1.756-0.136-2.65-0.136c-0.902,0-1.791,0.057-2.672,0.136c-0.219,0.021-0.439,0.039-0.656,0.064
		c-0.836,0.094-1.664,0.219-2.479,0.38c-0.205,0.041-0.404,0.096-0.609,0.14c-0.615,0.139-1.227,0.296-1.828,0.472
		c-0.301,0.089-0.604,0.172-0.9,0.271c-0.68,0.221-1.352,0.467-2.008,0.737c-0.361,0.148-0.713,0.312-1.068,0.476
		c-0.369,0.165-0.732,0.344-1.096,0.526c-0.549,0.278-1.088,0.575-1.619,0.887c-0.404,0.237-0.809,0.473-1.199,0.729
		c-0.359,0.233-0.703,0.481-1.049,0.728c-0.332,0.239-0.658,0.483-0.98,0.734c-0.313,0.241-0.625,0.481-0.928,0.738
		c-0.541,0.457-1.066,0.937-1.574,1.434c-0.248,0.239-0.482,0.494-0.721,0.744c-0.348,0.361-0.686,0.734-1.016,1.115
		c-0.213,0.249-0.43,0.492-0.637,0.75c-0.475,0.588-0.932,1.193-1.361,1.82c-0.148,0.214-0.285,0.438-0.424,0.658
		c-0.328,0.501-0.641,1.013-0.936,1.533c-0.135,0.239-0.271,0.477-0.398,0.718c-0.379,0.713-0.734,1.439-1.055,2.182
		c-0.066,0.159-0.125,0.324-0.191,0.485c-0.26,0.643-0.502,1.298-0.719,1.96c-0.076,0.23-0.15,0.461-0.219,0.695
		c-0.244,0.813-0.465,1.633-0.639,2.473c-0.018,0.088-0.029,0.178-0.047,0.268c-0.154,0.777-0.271,1.566-0.361,2.363
		c-0.027,0.23-0.053,0.459-0.072,0.689c-0.08,0.887-0.137,1.782-0.137,2.69c0,1.094,0.066,2.17,0.189,3.23
		c0.012,0.124,0.043,0.246,0.057,0.368c0.109,0.84,0.25,1.668,0.424,2.487c0.023,0.114,0.033,0.231,0.059,0.344
		c2.043,0.95,4.203,1.647,6.346,2.135c-0.117-0.827-0.25-1.776-0.336-2.7c-0.047-0.504-0.084-0.998-0.084-1.445
		c0-5.405,1.492-10.459,4.035-14.823c-2.027-0.974-3.479-1.449-4.412-1.684c-0.004,0-0.004,0-0.006,0
		c-0.855-0.216-1.285-0.231-1.285-0.231c4.402-4.741,7.289-5.742,9.162-4.837c0.41,0.197,0.77,0.487,1.09,0.849
		c0.104-0.106,0.219-0.207,0.328-0.313c0.084-0.085,0.172-0.165,0.256-0.248c5.135-4.938,12.008-8.053,19.627-8.258
		c0.271-0.009,0.531-0.051,0.803-0.051c4.576,0,8.891,1.07,12.764,2.939C351.247,275.136,350.542,274.539,349.792,273.998z"/>
</g>
</svg>
