<?xml version="1.0" encoding="utf-8"?>
<!-- Generator: Adobe Illustrator 16.0.0, SVG Export Plug-In . SVG Version: 6.00 Build 0)  -->
<!DOCTYPE svg PUBLIC "-//W3C//DTD SVG 1.1//EN" "http://www.w3.org/Graphics/SVG/1.1/DTD/svg11.dtd">
<svg version="1.1" id="Layer_1" xmlns="http://www.w3.org/2000/svg" xmlns:xlink="http://www.w3.org/1999/xlink" x="0px" y="0px"
	 width="179px" height="130px" viewBox="0 0 179 130" enable-background="new 0 0 179 130" xml:space="preserve">
<g>
	<path fill="#00718C" d="M114.835,66.015c-0.249,9.117-0.705,6.321-1.575,16.32c-0.136,1.557,0.188,3.362-0.307,4.841
		c-0.757,2.257-0.977,2.127-3.273,2.455c-12.58,1.797-31.784-0.075-44.447,0.77c-5.688,0.379-11.488-0.233-17.193-0.512
		c-7.917-0.386-22.095,0.475-29.981,1.018c-3.015,0.207-6.674,1.575-8.102-1.554c-1.058-2.319-0.041-5.568-0.207-8.027
		c-0.255-3.758,0.64-7.722,0.068-11.476c-0.967-6.354,0.221-12.878,0.342-19.311c0.04-2.08,0.075-4.112,0.201-6.19
		c0.214-3.482-0.88-5.939-1.343-9.268c-1.426-10.237,14.42-4.962,19.167-4.962c11.499,0,29.641-1.655,41.101-0.614
		c3.442,0.313,6.714,1.47,10.193,1.475c4.799,0.006,9.521-0.897,14.243-1.645c3.169-0.5,15.564-1.353,18.521,0.289
		c0.339,0.188,0.628,0.421,0.873,0.69c0.669-0.279,1.263-0.595,1.734-0.962c1.511-1.511,2.191-3.505,3.122-5.495
		c-3.551-2.459-13.613-1.619-17.479-1.25c-4.223,0.403-8.546-0.074-12.783-0.316c-10.57-0.605-21.153-1.218-31.745-1.005
		c-11.662,0.233-29.489,0.976-41.222,0.976c-3.967,0-9.964-0.351-12.361,3.378c-2.601,4.045-1.198,10.082-1.198,14.526
		c0,13.187-0.628,26.373-0.628,40.188c0,5.578-0.41,10.98,0.605,16.421c0.612,3.276-0.331,8.748,2.124,11.397
		c4.209,4.532,17.273,3.006,22.716,3.034c5.976,0.031,18.206-0.798,24.183-0.651c2.455,0.06,2.796-0.309,3.647,1.735
		c0.732,1.756,0.352,5.236-0.118,7.029c-2.586,0.162-5.27-0.217-7.854,0.041c-2.965,0.295-4.994,1.896-7.699,3.506
		c-2.063,1.227-4.872,2.395-6.514,4.032c1.892,3.976,16.098,1.067,19.824,0.994c6.343-0.125,13.067,0.604,19.418,0.995
		c6.416,0.396,13.013-0.344,19.42-0.86c-3.517-1.849-7.532-4.348-10.635-7.03c-2.091-1.808-2.753-2.364-5.437-2.455
		c-2.534-0.084-5.101,0.088-7.621-0.041c-1.408-0.07,0.829-7.783,2.584-8.533c3.451-1.478,10.504,0.276,14.223,0.512
		c7.198,0.454,20.698,0.966,27.914,0.624c2.651-0.127,6.515,0.332,8.143-1.859c1.232-1.661,1.883-5.527,2.267-7.541
		c2.682-14.064,0.393-29.475-0.009-43.9C119.987,61.628,117.686,65.111,114.835,66.015z"/>
</g>
<g>
	<path fill="#F4AB2B" d="M59.396,98.227c-0.851,0.638-1.27,1.589-0.946,2.635c0.281,0.911,0.848,1.893,1.653,2.4
		c1.923,1.208,4.597,0.036,4.829-2.246c0.063-0.616,0.184-1.408-0.092-1.901c-0.555-0.995-1.486-1.675-2.658-1.695
		c0.141-0.019,0.026-0.016-0.345,0.01C60.783,97.47,60.261,97.578,59.396,98.227z"/>
</g>
<g>
	<path fill="#BF3916" d="M152.889,18.278c-1.963,1.988-3.779,4.127-5.435,6.419c-3.51,4.855-7.588,9.262-11.173,14.06
		c-1.313,1.757-3.931,4.308-3.163,6.698c0.423,1.315,3.222,3.684,4.482,2.631c2.673-2.233,5.683-3.402,8.37-5.411
		c2.891-2.161,4.969-5.278,7.969-7.347c4.43-3.058,7.42-6.831,10.706-10.979C170.039,17.538,178.991,10.59,178.508,1
		c-3.531,0.229-6.355,2.731-8.996,4.816c-2.443,1.927-5.188,3.414-7.807,5.177C158.515,13.141,155.564,15.568,152.889,18.278z"/>
</g>
<g>
	<path fill="#F4AB2B" d="M119.634,54.357c-1.172,2.059-2.167,4.153-3.061,6.267c-0.725,1.717-2.107,3.712-1.575,5.734
		c0.943,3.587,3.496-0.395,5.396-1.977c3.602-2.998,7.971-2.222,11.771-5.189c1.866-1.458,2.987-2.92,3.303-5.372
		c0.462-3.589-1.514-6.835-5.461-7.53C126.107,45.604,121.324,51.388,119.634,54.357z"/>
</g>
</svg>
