<?xml version="1.0" encoding="utf-8"?>
<!-- Generator: Adobe Illustrator 16.0.0, SVG Export Plug-In . SVG Version: 6.00 Build 0)  -->
<!DOCTYPE svg PUBLIC "-//W3C//DTD SVG 1.1//EN" "http://www.w3.org/Graphics/SVG/1.1/DTD/svg11.dtd">
<svg version="1.1" id="Layer_1" xmlns="http://www.w3.org/2000/svg" xmlns:xlink="http://www.w3.org/1999/xlink" x="0px" y="0px"
	 width="170px" height="170px" viewBox="0 0 170 170" enable-background="new 0 0 170 170" xml:space="preserve">
<g>
	<g>
		<path fill="#F4AB2B" d="M-168.304,204.3c-1.82,15.712,2.434,31.476,1.811,47.278c-0.305,7.743-1.035,15.463-1.347,23.207
			c-0.343,8.517,0.298,17.024,0.761,25.524c0.432,7.909,0.843,15.819,1.126,23.735c0.242,6.766-0.431,13.886,0.633,20.576
			c0.507,3.19,3.201,4.581,6.094,5.077c7.346,1.261,15.446,0.631,22.88,0.67c16.077,0.085,32.133-1.433,48.205-0.965
			c12.293,0.357,27.248,4.029,39.049-1.012c3.513-1.501,6.406-4.107,6.605-8.18c0.369-7.537-0.028-15.339-0.395-22.88
			c-0.374-7.699-0.899-15.388-1.068-23.098c-0.185-8.422,0.648-16.77,1.254-25.159c0.682-9.469,0.505-18.763-0.016-28.228
			c-0.519-9.424,1.479-18.634,0.26-28.066c-0.511-3.946-0.859-7.809-0.696-11.789c0.081-1.968-0.589-4.386-2.498-5.366
			c-3.007-1.545-6.08-1.456-9.409-1.544c-5.028-0.131-10.068,0.155-15.087,0.442c-19.819,1.136-39.442,1.103-59.269,0.162
			c-9.556-0.453-19.14-0.151-28.701-0.069c-4.549,0.039-10.929-1.937-12.114,3.925c-0.382,1.889,2.509,2.692,2.893,0.797
			c0.601-2.968,7.3-1.711,9.222-1.722c3.806-0.022,7.611-0.084,11.417-0.123c8.336-0.085,16.624,0.171,24.946,0.604
			c15.916,0.829,31.927,0.641,47.829-0.343c7.384-0.457,14.73-0.787,22.129-0.587c6.646,0.18,5.434,5.883,5.712,10.165
			c0.286,4.395,1.128,8.688,1.213,13.105c0.143,7.442-1.157,14.729-0.746,22.202c0.452,8.211,0.553,16.281,0.047,24.497
			c-0.477,7.761-1.353,15.485-1.415,23.266c-0.066,8.343,0.548,16.687,1,25.012c0.394,7.232,0.099,14.477,0.525,21.697
			c0.563,9.525-9.041,9.957-16.232,10.41c-7.529,0.475-15.104-0.405-22.605-0.933c-8.339-0.587-16.734-0.239-25.076,0.113
			c-16.05,0.679-32.075,0.943-48.129,0.162c-6.392-0.312-5.147-6.124-5.184-10.927c-0.05-6.607-0.298-13.213-0.588-19.813
			c-0.548-12.47-1.75-24.973-1.667-37.458c0.081-12.304,1.716-24.535,1.607-36.85c-0.111-12.607-3.44-24.861-1.974-37.519
			C-165.082,202.38-168.084,202.401-168.304,204.3L-168.304,204.3z"/>
	</g>
</g>
<g>
	<g>
		<path fill="#F4AB2B" d="M-140.432,247.487c13.733-0.162,27.491-0.204,41.224-0.239c6.978-0.017,13.969,0.817,20.938,1.143
			c4.911,0.23,10.101,0.963,14.949-0.155c3.497-0.807,5.206-3.679,5.776-6.971c0.902-5.205,0.613-11.498,0.459-16.772
			c-0.089-3.057,0.283-10.97-2.525-13.223c-2.773-2.227-7.279-2.21-10.669-2.617c-13.19-1.584-27.185-0.298-40.451-0.103
			c-6.958,0.103-13.902,0.03-20.86-0.046c-5.965-0.065-12.547-0.398-18.336,1.259c-8.943,2.561-6.215,15.816-5.649,22.312
			c0.368,4.22,0.489,9.927,2.964,13.521C-150.303,248.949-143.636,247.611-140.432,247.487c1.928-0.074,1.936-3.074,0-3
			c-2.783,0.107-5.565,0.411-8.338-0.027c-2.367-0.375-2.419-3.512-2.804-5.29c-1.168-5.406-1.334-11.038-1.646-16.543
			c-0.258-4.554,0.351-8.9,5.31-10.321c4.972-1.423,11.194-0.826,16.318-0.802c19.74,0.094,39.81-1.277,59.506-0.015
			c2.717,0.174,5.387,0.665,8.055,1.18c3.333,0.644,3.178,3.339,3.473,6.211c0.496,4.834,0.532,9.516,0.206,14.359
			c-0.322,4.772,1.293,10.937-4.854,12.354c-4.046,0.934-8.986-0.02-13.064-0.202c-10.097-0.449-20.035-1.264-30.153-0.967
			c-10.667,0.313-21.338-0.063-32.008,0.063C-142.365,244.51-142.367,247.51-140.432,247.487z"/>
	</g>
</g>
<g>
	<g>
		<path fill="#00718C" d="M-143.695,222.045c-1.375,1.131-2.848,2.175-4.009,3.537c-0.645,0.756-0.55,1.799,0.303,2.355
			c2.33,1.521,5.078,1.678,7.547,2.83c1.741,0.813,3.266-1.772,1.514-2.59c-2.45-1.145-5.262-1.34-7.546-2.83
			c0.101,0.785,0.202,1.57,0.303,2.355c1.161-1.362,2.634-2.406,4.009-3.537C-140.079,222.937-142.214,220.826-143.695,222.045
			L-143.695,222.045z"/>
	</g>
</g>
<g>
	<g>
		<path fill="#00718C" d="M-72.054,222.901c1.097,0.44,2.152,0.915,3.18,1.499c-0.18-0.684-0.359-1.368-0.538-2.052
			c-2.112,2.981-5.61,4.896-8.659,6.772c-1.645,1.012-0.139,3.607,1.514,2.59c3.532-2.174,7.296-4.404,9.735-7.849
			c0.47-0.662,0.127-1.674-0.538-2.052c-1.252-0.712-2.562-1.267-3.896-1.802C-73.054,219.288-73.826,222.19-72.054,222.901
			L-72.054,222.901z"/>
	</g>
</g>
<g>
	<g>
		<path fill="#00718C" d="M-108.322,259.136c-1.662,2.704-2.849,5.646-4.245,8.489c-0.43,0.876-0.08,1.911,0.896,2.203
			c3.387,1.015,7.058,0.806,10.539,0.525c1.122-0.09,1.884-1.208,1.295-2.257c-1.837-3.275-4.669-5.703-6.838-8.726
			c-1.117-1.557-3.721-0.062-2.591,1.514c2.164,3.016,5.011,5.469,6.839,8.726c0.432-0.752,0.863-1.505,1.295-2.257
			c-3.21,0.258-6.617,0.518-9.741-0.418c0.299,0.734,0.598,1.469,0.896,2.203c1.396-2.842,2.583-5.785,4.245-8.489
			C-104.716,258.997-107.311,257.491-108.322,259.136L-108.322,259.136z"/>
	</g>
</g>
<g>
	<g>
		<path fill="#00718C" d="M-113.51,274.326c2.368,4.755,10.242,3.397,14.428,2.812c0.824-0.115,1.227-1.132,1.048-1.845
			c-1.308-5.225-11.139-2.956-14.888-3.459c-1.913-0.257-1.888,2.747,0,3c1.949,0.262,11.427-1.013,11.996,1.256
			c0.349-0.615,0.698-1.229,1.048-1.845c-2.743,0.384-9.493,1.677-11.041-1.433C-111.782,271.08-114.369,272.601-113.51,274.326
			L-113.51,274.326z"/>
	</g>
</g>
<g>
	<g>
		<path fill="#00718C" d="M-120.94,286.153c11.79,0.424,23.599,0.058,35.372,0.943c1.931,0.146,1.917-2.855,0-3
			c-11.772-0.886-23.582-0.52-35.372-0.943C-122.875,283.084-122.869,286.084-120.94,286.153L-120.94,286.153z"/>
	</g>
</g>
<g>
	<g>
		<path fill="#00718C" d="M-124.241,294.878c6.465,0,12.931,0,19.396,0c6.646,0,13.962-0.853,20.53,0.183
			c1.892,0.299,2.704-2.592,0.797-2.893c-6.271-0.989-13.035-0.29-19.382-0.29c-7.114,0-14.227,0-21.341,0
			C-126.176,291.878-126.176,294.878-124.241,294.878L-124.241,294.878z"/>
	</g>
</g>
<g>
	<g>
		<path fill="#00718C" d="M-115.752,301.48c8.337,0.301,16.649,1.306,24.996,0.708c1.918-0.138,1.932-3.139,0-3
			c-8.347,0.598-16.659-0.407-24.996-0.708C-117.688,298.41-117.681,301.411-115.752,301.48L-115.752,301.48z"/>
	</g>
</g>
<g>
	<g>
		<path fill="#00718C" d="M-111.271,234.51c4.717,0.252,9.423,0.672,14.149,0.707c1.936,0.015,1.934-2.985,0-3
			c-4.727-0.035-9.432-0.455-14.149-0.707C-113.206,231.406-113.196,234.407-111.271,234.51L-111.271,234.51z"/>
	</g>
</g>
<g>
	<g>
		<path fill="#00718C" d="M-109.149,239.462c3.484,0.2,7,0.03,10.449,0.653c1.891,0.342,2.699-2.549,0.797-2.893
			c-3.724-0.673-7.483-0.545-11.246-0.761C-111.083,236.351-111.072,239.352-109.149,239.462L-109.149,239.462z"/>
	</g>
</g>
<g>
	<g>
		<path fill="#F4AB2B" d="M-126.6,335.674c11.319,0.726,22.62,1.713,33.97,1.771c12.432,0.064,24.87-0.899,37.279-1.537
			c0.623-0.032,1.326-0.429,1.446-1.102c1.202-6.713,4.645-20.474-5.638-21.386c-4.314-0.384-8.517,0.555-12.781,1.038
			c-7.645,0.865-15.593,0.209-23.277,0.381c-7.853,0.176-15.706,0.322-23.561,0.373c-8.363,0.055-16.53-1.431-24.865-1.679
			c-2.93-0.087-9.526-0.425-11.366,2.786c-2.911,5.081-1.114,12.787-0.784,18.333c0.05,0.844,0.646,1.463,1.5,1.5
			C-145.304,336.559-135.972,335.227-126.6,335.674c1.935,0.092,1.926-2.908,0-3c-9.373-0.447-18.704,0.885-28.077,0.479
			c0.5,0.5,1,1,1.5,1.5c-0.208-3.504-2.718-16.116,2.127-17.61c5.029-1.551,11.458-0.334,16.55,0.252
			c11.633,1.341,23.292,0.872,34.981,0.63c9.693-0.201,19.743,0.555,29.363-0.74c3.696-0.497,7.468-1.279,11.198-0.652
			c6.264,1.054,2.884,13.427,2.159,17.478c0.482-0.367,0.964-0.734,1.446-1.102c-11.792,0.606-23.577,1.364-35.387,1.527
			c-11.973,0.165-23.926-0.996-35.862-1.762C-128.532,332.55-128.521,335.551-126.6,335.674z"/>
	</g>
</g>
<g>
	<g>
		<path fill="#F4AB2B" d="M-168.305,17.3c-1.82,15.712,2.435,31.476,1.811,47.278c-0.306,7.744-1.035,15.464-1.347,23.208
			c-0.343,8.517,0.298,17.024,0.761,25.524c0.432,7.909,0.843,15.819,1.126,23.735c0.242,6.766-0.431,13.886,0.633,20.576
			c0.507,3.19,3.2,4.581,6.094,5.077c7.346,1.261,15.446,0.631,22.881,0.67c16.076,0.085,32.133-1.433,48.205-0.965
			c12.293,0.357,27.248,4.029,39.049-1.012c3.513-1.501,6.406-4.107,6.605-8.18c0.369-7.537-0.028-15.339-0.395-22.88
			c-0.374-7.699-0.899-15.388-1.068-23.098c-0.185-8.422,0.648-16.77,1.254-25.159c0.682-9.469,0.505-18.763-0.016-28.228
			c-0.519-9.424,1.479-18.635,0.26-28.067c-0.511-3.947-0.859-7.808-0.696-11.789c0.081-1.968-0.589-4.386-2.498-5.367
			c-3.007-1.544-6.08-1.456-9.409-1.543c-5.028-0.132-10.068,0.154-15.087,0.442c-19.819,1.136-39.442,1.102-59.269,0.162
			c-9.556-0.453-19.14-0.151-28.7-0.069c-4.55,0.039-10.929-1.937-12.115,3.924c-0.382,1.889,2.509,2.693,2.893,0.798
			c0.601-2.968,7.3-1.711,9.222-1.722c3.805-0.022,7.611-0.084,11.416-0.123c8.336-0.085,16.623,0.171,24.946,0.604
			c15.916,0.83,31.927,0.641,47.829-0.343c7.384-0.457,14.73-0.787,22.129-0.587c6.646,0.18,5.434,5.882,5.712,10.165
			c0.286,4.395,1.128,8.688,1.213,13.105c0.143,7.443-1.157,14.729-0.746,22.203c0.452,8.211,0.553,16.281,0.047,24.497
			c-0.477,7.761-1.353,15.485-1.415,23.266c-0.066,8.343,0.548,16.687,1,25.012c0.394,7.232,0.099,14.477,0.525,21.697
			c0.563,9.525-9.041,9.957-16.232,10.41c-7.529,0.475-15.104-0.405-22.605-0.933c-8.339-0.587-16.734-0.239-25.076,0.113
			c-16.05,0.679-32.075,0.943-48.129,0.162c-6.392-0.311-5.146-6.125-5.184-10.927c-0.05-6.607-0.298-13.213-0.588-19.813
			c-0.548-12.47-1.749-24.973-1.667-37.458c0.08-12.304,1.715-24.535,1.607-36.85c-0.11-12.607-3.441-24.861-1.975-37.519
			C-165.083,15.38-168.085,15.401-168.305,17.3L-168.305,17.3z"/>
	</g>
</g>
<g>
	<g>
		<path fill="#F4AB2B" d="M-140.432,60.487c13.733-0.162,27.491-0.205,41.224-0.239c6.978-0.018,13.968,0.816,20.938,1.143
			c4.911,0.229,10.101,0.962,14.949-0.156c3.497-0.806,5.206-3.678,5.776-6.971c0.902-5.205,0.613-11.498,0.459-16.772
			c-0.089-3.056,0.283-10.969-2.525-13.223c-2.773-2.226-7.279-2.209-10.669-2.617c-13.19-1.584-27.185-0.297-40.451-0.103
			c-6.958,0.103-13.902,0.03-20.86-0.046c-5.965-0.065-12.547-0.399-18.337,1.259c-8.942,2.561-6.214,15.817-5.648,22.312
			c0.368,4.219,0.489,9.927,2.963,13.521C-150.303,61.95-143.636,60.611-140.432,60.487c1.928-0.074,1.936-3.075,0-3
			c-2.783,0.107-5.565,0.411-8.338-0.028c-2.367-0.375-2.419-3.511-2.804-5.29c-1.168-5.406-1.333-11.038-1.646-16.543
			c-0.258-4.553,0.35-8.901,5.309-10.321c4.972-1.424,11.194-0.827,16.319-0.802c19.74,0.094,39.81-1.278,59.506-0.015
			c2.717,0.174,5.387,0.665,8.055,1.18c3.333,0.644,3.178,3.338,3.473,6.21c0.496,4.834,0.532,9.516,0.206,14.359
			c-0.322,4.772,1.293,10.937-4.854,12.354c-4.046,0.933-8.986-0.021-13.064-0.202c-10.097-0.45-20.036-1.264-30.154-0.967
			c-10.667,0.313-21.338-0.063-32.007,0.063C-142.365,57.51-142.367,60.51-140.432,60.487z"/>
	</g>
</g>
<g>
	<g>
		<path fill="#00718C" d="M-143.695,35.045c-1.375,1.131-2.849,2.175-4.01,3.537c-0.645,0.756-0.55,1.799,0.304,2.356
			c2.33,1.52,5.078,1.677,7.547,2.83c1.741,0.813,3.266-1.773,1.514-2.591c-2.45-1.144-5.262-1.339-7.547-2.83
			c0.102,0.786,0.203,1.571,0.304,2.356c1.162-1.362,2.635-2.406,4.01-3.537C-140.079,35.936-142.214,33.826-143.695,35.045
			L-143.695,35.045z"/>
	</g>
</g>
<g>
	<g>
		<path fill="#00718C" d="M-72.054,35.901c1.097,0.44,2.152,0.915,3.18,1.5c-0.18-0.684-0.359-1.368-0.538-2.052
			c-2.112,2.981-5.61,4.895-8.659,6.772c-1.645,1.012-0.139,3.608,1.514,2.591c3.532-2.175,7.296-4.404,9.735-7.849
			c0.47-0.662,0.127-1.674-0.538-2.052c-1.252-0.711-2.562-1.266-3.896-1.801C-73.054,32.288-73.826,35.19-72.054,35.901
			L-72.054,35.901z"/>
	</g>
</g>
<g>
	<g>
		<path fill="#00718C" d="M-108.323,72.136c-1.662,2.704-2.849,5.646-4.244,8.489c-0.43,0.876-0.08,1.911,0.896,2.203
			c3.387,1.014,7.058,0.805,10.539,0.525c1.122-0.09,1.884-1.208,1.295-2.257c-1.838-3.275-4.669-5.703-6.838-8.726
			c-1.117-1.557-3.721-0.062-2.591,1.514c2.164,3.016,5.012,5.469,6.839,8.726c0.432-0.752,0.863-1.504,1.295-2.257
			c-3.21,0.258-6.617,0.518-9.741-0.418c0.299,0.734,0.598,1.469,0.896,2.203c1.395-2.842,2.582-5.785,4.244-8.489
			C-104.716,71.997-107.312,70.491-108.323,72.136L-108.323,72.136z"/>
	</g>
</g>
<g>
	<g>
		<path fill="#00718C" d="M-113.51,87.326c2.368,4.755,10.242,3.397,14.428,2.812c0.824-0.115,1.227-1.132,1.048-1.845
			c-1.308-5.224-11.139-2.956-14.888-3.459c-1.913-0.256-1.888,2.747,0,3c1.949,0.262,11.427-1.013,11.995,1.256
			c0.349-0.614,0.698-1.229,1.048-1.845c-2.743,0.384-9.493,1.677-11.041-1.433C-111.782,84.08-114.369,85.601-113.51,87.326
			L-113.51,87.326z"/>
	</g>
</g>
<g>
	<g>
		<path fill="#00718C" d="M-120.939,99.153c11.79,0.424,23.599,0.058,35.371,0.943c1.931,0.146,1.917-2.855,0-3
			c-11.772-0.886-23.582-0.52-35.371-0.943C-122.875,96.084-122.868,99.084-120.939,99.153L-120.939,99.153z"/>
	</g>
</g>
<g>
	<g>
		<path fill="#00718C" d="M-124.241,107.878c6.465,0,12.931,0,19.396,0c6.646,0,13.962-0.853,20.53,0.183
			c1.892,0.299,2.704-2.592,0.797-2.893c-6.271-0.989-13.035-0.29-19.382-0.29c-7.114,0-14.227,0-21.341,0
			C-126.176,104.878-126.176,107.878-124.241,107.878L-124.241,107.878z"/>
	</g>
</g>
<g>
	<g>
		<path fill="#00718C" d="M-115.752,114.48c8.337,0.301,16.649,1.306,24.996,0.708c1.918-0.138,1.932-3.139,0-3
			c-8.347,0.598-16.659-0.407-24.996-0.708C-117.688,111.41-117.681,114.411-115.752,114.48L-115.752,114.48z"/>
	</g>
</g>
<g>
	<g>
		<path fill="#00718C" d="M-111.271,47.51c4.717,0.252,9.423,0.672,14.149,0.707c1.936,0.014,1.934-2.986,0-3
			c-4.727-0.035-9.432-0.455-14.149-0.707C-113.206,44.406-113.196,47.407-111.271,47.51L-111.271,47.51z"/>
	</g>
</g>
<g>
	<g>
		<path fill="#00718C" d="M-109.148,52.462c3.484,0.2,7,0.03,10.448,0.653c1.891,0.342,2.699-2.549,0.797-2.893
			c-3.724-0.673-7.483-0.544-11.245-0.761C-111.082,49.351-111.071,52.352-109.148,52.462L-109.148,52.462z"/>
	</g>
</g>
<g>
	<g>
		<path fill="#F4AB2B" d="M-126.6,148.674c11.319,0.726,22.62,1.713,33.97,1.771c12.432,0.064,24.87-0.899,37.279-1.537
			c0.623-0.032,1.326-0.429,1.446-1.102c1.202-6.713,4.645-20.474-5.638-21.386c-4.314-0.384-8.517,0.555-12.781,1.038
			c-7.645,0.865-15.593,0.209-23.277,0.381c-7.853,0.176-15.706,0.322-23.561,0.373c-8.363,0.055-16.53-1.431-24.864-1.679
			c-2.93-0.087-9.526-0.424-11.366,2.786c-2.912,5.08-1.113,12.788-0.784,18.333c0.05,0.844,0.646,1.463,1.5,1.5
			C-145.303,149.559-135.972,148.227-126.6,148.674c1.935,0.092,1.926-2.908,0-3c-9.372-0.447-18.704,0.885-28.076,0.479
			c0.5,0.5,1,1,1.5,1.5c-0.208-3.504-2.719-16.116,2.127-17.61c5.03-1.551,11.458-0.334,16.55,0.252
			c11.634,1.341,23.292,0.872,34.981,0.63c9.693-0.201,19.743,0.555,29.363-0.74c3.696-0.497,7.468-1.279,11.198-0.652
			c6.264,1.054,2.884,13.427,2.159,17.478c0.482-0.367,0.964-0.734,1.446-1.102c-11.792,0.606-23.577,1.364-35.387,1.527
			c-11.973,0.165-23.926-0.996-35.862-1.762C-128.532,145.55-128.521,148.551-126.6,148.674z"/>
	</g>
</g>
<g>
	<g>
		<path fill="#F4AB2B" d="M48.568,60.487c13.733-0.162,27.491-0.205,41.224-0.239c6.978-0.018,13.968,0.816,20.938,1.143
			c4.911,0.229,10.101,0.962,14.949-0.156c3.497-0.806,5.206-3.678,5.776-6.971c0.902-5.205,0.613-11.498,0.459-16.772
			c-0.089-3.056,0.283-10.969-2.525-13.223c-2.773-2.226-7.279-2.209-10.669-2.617c-13.19-1.584-27.185-0.297-40.45-0.103
			c-6.959,0.103-13.902,0.03-20.861-0.046c-5.965-0.065-12.547-0.399-18.336,1.259c-8.942,2.561-6.215,15.817-5.648,22.312
			c0.368,4.219,0.489,9.927,2.963,13.521C38.696,61.95,45.364,60.611,48.568,60.487c1.928-0.074,1.936-3.075,0-3
			c-2.783,0.107-5.565,0.411-8.338-0.028c-2.367-0.375-2.419-3.511-2.804-5.29c-1.168-5.406-1.333-11.038-1.646-16.543
			c-0.258-4.553,0.35-8.901,5.309-10.321c4.972-1.424,11.194-0.827,16.318-0.802c19.741,0.094,39.811-1.278,59.507-0.015
			c2.717,0.174,5.387,0.665,8.055,1.18c3.333,0.644,3.178,3.338,3.473,6.21c0.496,4.834,0.532,9.516,0.206,14.359
			c-0.322,4.772,1.293,10.937-4.854,12.354c-4.046,0.933-8.986-0.021-13.064-0.202c-10.097-0.45-20.036-1.264-30.154-0.967
			c-10.666,0.313-21.338-0.063-32.007,0.063C46.635,57.51,46.633,60.51,48.568,60.487z"/>
	</g>
</g>
<g>
	<g>
		<path fill="#00718C" d="M45.305,35.045c-1.375,1.131-2.849,2.175-4.01,3.537c-0.645,0.756-0.55,1.799,0.304,2.356
			c2.33,1.52,5.078,1.677,7.547,2.83c1.741,0.813,3.266-1.773,1.514-2.591c-2.45-1.144-5.262-1.339-7.547-2.83
			c0.102,0.786,0.202,1.571,0.304,2.356c1.161-1.362,2.635-2.406,4.01-3.537C48.921,35.936,46.786,33.826,45.305,35.045
			L45.305,35.045z"/>
	</g>
</g>
<g>
	<g>
		<path fill="#00718C" d="M116.946,35.901c1.097,0.44,2.152,0.915,3.18,1.5c-0.18-0.684-0.359-1.368-0.538-2.052
			c-2.112,2.981-5.61,4.895-8.659,6.772c-1.644,1.012-0.139,3.608,1.514,2.591c3.532-2.175,7.296-4.404,9.735-7.849
			c0.47-0.662,0.127-1.674-0.538-2.052c-1.252-0.711-2.562-1.266-3.896-1.801C115.946,32.288,115.174,35.19,116.946,35.901
			L116.946,35.901z"/>
	</g>
</g>
<g>
	<g>
		<path fill="#00718C" d="M80.678,72.136c-1.662,2.704-2.849,5.646-4.244,8.489c-0.431,0.876-0.08,1.911,0.896,2.203
			c3.387,1.014,7.057,0.805,10.538,0.525c1.122-0.09,1.884-1.208,1.295-2.257c-1.837-3.275-4.669-5.703-6.839-8.726
			c-1.117-1.557-3.721-0.062-2.59,1.514c2.164,3.016,5.011,5.469,6.839,8.726c0.432-0.752,0.863-1.504,1.295-2.257
			c-3.21,0.258-6.617,0.518-9.741-0.418c0.299,0.734,0.598,1.469,0.896,2.203c1.396-2.842,2.582-5.785,4.244-8.489
			C84.284,71.997,81.688,70.491,80.678,72.136L80.678,72.136z"/>
	</g>
</g>
<g>
	<g>
		<path fill="#00718C" d="M75.49,87.326c2.367,4.755,10.241,3.397,14.428,2.812c0.824-0.115,1.227-1.132,1.048-1.845
			c-1.308-5.224-11.139-2.956-14.888-3.459c-1.913-0.256-1.888,2.747,0,3c1.949,0.262,11.427-1.013,11.995,1.256
			c0.349-0.614,0.698-1.229,1.048-1.845c-2.743,0.384-9.493,1.677-11.041-1.433C77.218,84.08,74.631,85.601,75.49,87.326
			L75.49,87.326z"/>
	</g>
</g>
<g>
	<g>
		<path fill="#00718C" d="M68.061,99.153c11.79,0.424,23.599,0.058,35.371,0.943c1.931,0.146,1.917-2.855,0-3
			c-11.772-0.886-23.581-0.52-35.371-0.943C66.125,96.084,66.132,99.084,68.061,99.153L68.061,99.153z"/>
	</g>
</g>
<g>
	<g>
		<path fill="#00718C" d="M64.759,107.878c6.465,0,12.931,0,19.396,0c6.646,0,13.963-0.853,20.53,0.183
			c1.892,0.299,2.704-2.592,0.797-2.893c-6.271-0.989-13.035-0.29-19.382-0.29c-7.113,0-14.228,0-21.341,0
			C62.824,104.878,62.824,107.878,64.759,107.878L64.759,107.878z"/>
	</g>
</g>
<g>
	<g>
		<path fill="#00718C" d="M73.248,114.48c8.338,0.301,16.649,1.306,24.996,0.708c1.918-0.138,1.932-3.139,0-3
			c-8.347,0.598-16.658-0.407-24.996-0.708C71.313,111.41,71.319,114.411,73.248,114.48L73.248,114.48z"/>
	</g>
</g>
<g>
	<g>
		<path fill="#00718C" d="M77.729,47.51c4.717,0.252,9.423,0.672,14.149,0.707c1.936,0.014,1.934-2.986,0-3
			c-4.727-0.035-9.433-0.455-14.149-0.707C75.795,44.406,75.805,47.407,77.729,47.51L77.729,47.51z"/>
	</g>
</g>
<g>
	<g>
		<path fill="#00718C" d="M79.852,52.462c3.484,0.2,7,0.03,10.448,0.653c1.891,0.342,2.699-2.549,0.797-2.893
			c-3.724-0.673-7.482-0.544-11.245-0.761C77.918,49.351,77.929,52.352,79.852,52.462L79.852,52.462z"/>
	</g>
</g>
<g>
	<g>
		<path fill="#F4AB2B" d="M62.4,148.674c11.318,0.726,22.62,1.713,33.97,1.771c12.432,0.064,24.87-0.899,37.279-1.537
			c0.623-0.032,1.326-0.429,1.446-1.102c1.202-6.713,4.645-20.474-5.638-21.386c-4.314-0.384-8.517,0.555-12.781,1.038
			c-7.645,0.865-15.593,0.209-23.277,0.381c-7.853,0.176-15.706,0.322-23.561,0.373c-8.363,0.055-16.53-1.431-24.864-1.679
			c-2.931-0.087-9.526-0.424-11.367,2.786c-2.911,5.08-1.113,12.788-0.783,18.333c0.05,0.844,0.646,1.463,1.5,1.5
			C43.696,149.559,53.028,148.227,62.4,148.674c1.935,0.092,1.926-2.908,0-3c-9.372-0.447-18.704,0.885-28.076,0.479
			c0.5,0.5,1,1,1.5,1.5c-0.208-3.504-2.719-16.116,2.127-17.61c5.03-1.551,11.458-0.334,16.55,0.252
			c11.634,1.341,23.292,0.872,34.981,0.63c9.693-0.201,19.743,0.555,29.363-0.74c3.696-0.497,7.468-1.279,11.198-0.652
			c6.264,1.054,2.884,13.427,2.159,17.478c0.482-0.367,0.964-0.734,1.446-1.102c-11.792,0.606-23.577,1.364-35.387,1.527
			c-11.973,0.165-23.927-0.996-35.862-1.762C60.468,145.55,60.479,148.551,62.4,148.674z"/>
	</g>
</g>
</svg>
