<?xml version="1.0" encoding="utf-8"?>
<!-- Generator: Adobe Illustrator 16.0.0, SVG Export Plug-In . SVG Version: 6.00 Build 0)  -->
<!DOCTYPE svg PUBLIC "-//W3C//DTD SVG 1.1//EN" "http://www.w3.org/Graphics/SVG/1.1/DTD/svg11.dtd">
<svg version="1.1" id="Layer_1" xmlns="http://www.w3.org/2000/svg" xmlns:xlink="http://www.w3.org/1999/xlink" x="0px" y="0px"
	 width="12px" height="13px" viewBox="0 0 12 13" enable-background="new 0 0 12 13" xml:space="preserve">
<g>
	<path fill="#F4AB2B" d="M2.424,7.203c2.555,8.658,9.51,2.129,7.665-3.265C8.527-0.178,0.862,2.235,2.424,7.203"/>
	<g>
		<path fill="#00718C" d="M0.978,7.602c0.964,3.067,3.327,6.452,6.965,4.912c2.747-1.164,4.17-4.556,3.914-7.387
			C11.147-2.732-1.062,0.234,0.978,7.602c0.515,1.862,3.409,1.07,2.893-0.797C3.385,5.05,4.474,3.842,6.135,3.417
			c1.717-0.439,2.696,0.692,2.761,2.306c0.062,1.531-0.71,3.221-2.05,4.007c-1.65,0.968-2.64-1.855-2.976-2.925
			C3.293,4.965,0.396,5.751,0.978,7.602L0.978,7.602z"/>
	</g>
</g>
</svg>
