<?xml version="1.0" encoding="utf-8"?>
<!-- Generator: Adobe Illustrator 16.0.0, SVG Export Plug-In . SVG Version: 6.00 Build 0)  -->
<!DOCTYPE svg PUBLIC "-//W3C//DTD SVG 1.1//EN" "http://www.w3.org/Graphics/SVG/1.1/DTD/svg11.dtd">
<svg version="1.1" id="Layer_1" xmlns="http://www.w3.org/2000/svg" xmlns:xlink="http://www.w3.org/1999/xlink" x="0px" y="0px"
	 width="31.255px" height="12.958px" viewBox="0 0 31.255 12.958" enable-background="new 0 0 31.255 12.958" xml:space="preserve">
<g>
	<path fill="#FFFFFF" d="M21.17,3.27c1.587,0.105,3.145,0.193,4.7,0.556c3.278,0.765,2.61,3.616,0.261,5.073
		c-3.235,2.006-11.565,1.985-11.947-2.795c-0.152-1.915-3.154-1.93-3,0c0.35,4.375,2.352,6.046,6.653,6.624
		c3.628,0.488,7.302,0.315,10.467-1.647c2.747-1.703,3.773-4.765,2.234-7.623c-1.641-3.046-6.454-2.993-9.368-3.188
		C19.237,0.141,19.25,3.142,21.17,3.27L21.17,3.27z"/>
</g>
<g>
	<path fill="#FFFFFF" d="M19.763,6.361c-1.331-3.73-2.955-5.279-7.045-5.848C9.775,0.105,4.055-0.86,1.752,1.771
		c-1.763,2.015-2.564,5.508-0.633,7.747c2.221,2.574,5.717,3.162,8.861,2.609c1.903-0.335,1.094-3.226-0.797-2.893
		C7.57,9.519,6.707,9.167,5.232,8.68C1.579,7.473,2.928,3.512,6.246,3.157c1.622-0.173,3.377,0.148,5.004,0.219
		c1.441,0.062,3.276,0.286,4.465,1.214c0.615,0.48,0.9,1.855,1.155,2.568C17.516,8.967,20.415,8.188,19.763,6.361L19.763,6.361z"/>
</g>
</svg>
